<svg id="svg" version="1.1" xmlns="http://www.w3.org/2000/svg" xmlns:xlink="http://www.w3.org/1999/xlink" width="400" height="171.05263157894737" viewBox="0, 0, 400,171.05263157894737"><g id="svgg"><path id="path0" d="M75.619 10.072 C 75.180 10.189,74.786 10.294,74.743 10.306 C 74.700 10.318,74.459 10.375,74.208 10.433 C 72.608 10.802,69.454 12.202,69.006 12.743 C 68.890 12.882,68.737 12.960,68.665 12.916 C 68.594 12.871,68.492 12.947,68.439 13.084 C 68.387 13.221,68.271 13.333,68.183 13.333 C 68.011 13.333,66.092 15.182,65.221 16.186 C 63.733 17.903,62.339 20.861,61.811 23.422 C 61.659 24.158,61.581 29.333,61.511 43.363 L 61.417 62.309 60.833 61.815 C 59.999 61.108,56.152 58.520,55.500 58.227 C 55.362 58.165,54.500 57.764,53.583 57.334 C 51.568 56.391,50.096 55.871,47.667 55.246 C 47.071 55.093,46.471 54.928,46.333 54.881 C 46.196 54.834,45.783 54.768,45.417 54.736 C 45.050 54.704,44.188 54.602,43.500 54.511 C 39.365 53.963,32.003 54.595,29.993 55.670 C 29.845 55.749,29.543 55.844,29.320 55.881 C 29.098 55.918,28.692 56.042,28.417 56.156 C 28.142 56.271,27.729 56.437,27.500 56.524 C 21.449 58.833,15.768 63.386,11.936 68.999 C 11.005 70.363,10.437 71.331,10.152 72.042 C 10.050 72.294,9.895 72.500,9.807 72.500 C 9.719 72.500,9.693 72.575,9.750 72.667 C 9.807 72.758,9.761 72.833,9.649 72.833 C 9.536 72.833,9.486 72.875,9.537 72.926 C 9.588 72.977,9.413 73.465,9.148 74.012 C 8.883 74.558,8.664 75.098,8.661 75.211 C 8.658 75.324,8.510 75.717,8.333 76.083 C 8.156 76.450,8.009 76.845,8.006 76.961 C 8.003 77.076,7.928 77.301,7.841 77.461 C 7.680 77.754,7.396 78.873,6.794 81.583 C 6.311 83.757,6.183 89.972,6.574 92.283 C 6.875 94.067,7.590 97.220,7.813 97.750 C 7.891 97.933,8.077 98.367,8.227 98.714 C 8.377 99.061,8.500 99.438,8.500 99.552 C 8.500 99.666,8.756 100.295,9.070 100.949 C 9.383 101.603,9.607 102.171,9.566 102.212 C 9.525 102.253,9.606 102.381,9.746 102.497 C 9.886 102.613,10.000 102.767,10.000 102.840 C 10.000 104.207,15.407 110.865,18.573 113.397 C 21.964 116.110,27.329 119.025,29.667 119.426 C 29.712 119.433,30.087 119.540,30.500 119.663 C 30.912 119.785,31.363 119.903,31.500 119.923 C 31.637 119.944,32.239 120.080,32.838 120.226 C 33.436 120.371,34.261 120.530,34.671 120.580 C 35.081 120.629,35.604 120.709,35.833 120.757 C 37.526 121.112,43.457 120.871,45.833 120.351 C 48.341 119.802,50.865 119.097,51.250 118.837 C 51.342 118.775,51.792 118.588,52.250 118.422 C 53.447 117.988,57.128 116.058,57.851 115.486 C 58.189 115.219,58.511 115.000,58.568 115.000 C 58.625 115.000,59.364 114.462,60.211 113.804 C 64.489 110.481,67.838 106.093,70.430 100.417 C 70.644 99.947,71.317 98.028,71.657 96.917 C 71.796 96.463,72.231 94.653,72.429 93.704 C 72.473 93.495,72.547 92.895,72.593 92.371 C 72.640 91.846,72.750 91.009,72.839 90.511 C 72.939 89.949,73.000 77.525,73.000 57.715 C 73.000 26.463,73.007 25.806,73.327 24.895 C 73.745 23.706,74.346 22.924,75.314 22.310 C 76.908 21.299,76.100 21.338,95.148 21.331 C 110.249 21.325,112.681 21.290,113.313 21.072 C 116.349 20.025,118.027 16.634,116.914 13.797 C 116.509 12.766,114.771 10.526,114.477 10.657 C 114.444 10.672,114.004 10.498,113.500 10.269 L 112.583 9.853 94.500 9.856 C 80.354 9.858,76.243 9.905,75.619 10.072 M88.074 32.153 C 82.934 32.997,82.148 40.494,86.944 42.924 L 87.917 43.417 100.432 43.417 L 112.947 43.417 113.913 42.917 C 118.763 40.409,118.130 33.598,112.923 32.256 C 111.880 31.987,89.645 31.895,88.074 32.153 M88.083 54.278 C 87.900 54.321,87.514 54.463,87.225 54.595 C 86.936 54.726,86.627 54.833,86.539 54.833 C 86.280 54.833,84.689 56.473,84.387 57.052 C 82.660 60.358,84.075 64.042,87.541 65.264 C 88.095 65.460,90.338 65.502,100.556 65.507 L 112.901 65.512 113.909 65.015 C 117.728 63.130,118.413 57.947,115.167 55.500 C 114.863 55.271,114.513 54.984,114.390 54.863 C 114.267 54.742,114.167 54.688,114.167 54.742 C 114.167 54.797,113.923 54.709,113.625 54.546 C 113.104 54.261,89.226 54.011,88.083 54.278 M88.388 76.355 C 87.247 76.494,83.681 78.833,84.609 78.833 C 84.653 78.833,84.541 79.042,84.359 79.297 C 82.640 81.711,84.031 85.799,87.059 87.231 L 87.996 87.675 100.416 87.669 C 114.887 87.662,113.646 87.807,115.590 85.901 C 118.369 83.177,117.498 78.508,113.898 76.825 L 112.839 76.329 101.044 76.290 C 94.557 76.268,88.862 76.297,88.388 76.355 " stroke="none" fill="#6464f4" fill-rule="evenodd"></path><path id="path1" d="M155.667 4.743 C 154.299 4.958,152.770 5.420,152.255 5.774 C 152.074 5.898,151.827 6.000,151.706 6.000 C 150.665 6.000,148.217 8.418,147.265 10.386 C 146.120 12.754,144.234 17.795,144.086 18.884 C 144.058 19.085,143.765 20.070,143.435 21.072 C 143.104 22.075,142.833 22.995,142.833 23.118 C 142.833 23.241,142.579 24.258,142.269 25.379 C 141.474 28.247,140.813 30.899,140.577 32.167 C 140.466 32.762,140.140 34.200,139.854 35.361 C 139.568 36.523,139.334 37.610,139.335 37.778 C 139.336 37.946,139.078 39.283,138.763 40.750 C 137.936 44.594,136.995 49.643,136.921 50.627 C 136.887 51.093,136.742 52.099,136.600 52.862 C 136.204 54.994,135.854 57.460,135.753 58.837 C 135.702 59.523,135.549 60.908,135.413 61.917 C 135.001 64.972,134.665 68.468,134.572 70.667 C 134.524 71.813,134.413 74.052,134.326 75.643 C 134.123 79.337,134.122 85.191,134.323 87.851 C 134.410 88.987,134.523 90.569,134.576 91.366 C 134.677 92.906,135.028 95.155,135.403 96.667 C 135.528 97.171,135.684 97.910,135.750 98.310 C 135.926 99.386,137.112 102.778,137.676 103.819 C 137.946 104.318,138.167 104.797,138.167 104.884 C 138.167 105.134,139.451 107.000,140.285 107.961 C 144.713 113.064,154.543 111.501,160.952 104.675 C 161.430 104.166,161.966 103.600,162.142 103.416 C 164.498 100.966,167.364 96.182,170.848 88.885 C 171.207 88.134,171.500 87.469,171.500 87.408 C 171.500 87.346,171.762 86.734,172.083 86.049 C 172.404 85.364,172.666 84.754,172.664 84.693 C 172.662 84.587,173.193 83.223,174.329 80.417 C 174.625 79.683,174.929 78.834,175.003 78.528 C 175.239 77.555,175.333 77.740,175.335 79.181 C 175.337 81.166,175.635 85.148,175.913 86.917 C 176.043 87.742,176.189 88.754,176.237 89.167 C 176.315 89.833,176.578 90.785,177.389 93.338 C 177.730 94.413,178.958 96.963,179.470 97.660 C 181.021 99.773,183.404 102.167,183.956 102.167 C 184.036 102.167,184.345 102.346,184.643 102.566 C 188.342 105.295,198.048 106.345,202.794 104.529 C 205.221 103.601,211.833 97.997,211.833 96.868 C 211.833 96.780,211.955 96.606,212.105 96.482 C 212.404 96.234,214.333 93.417,214.333 93.228 C 214.333 93.163,214.439 92.991,214.567 92.846 C 214.904 92.467,215.991 90.457,217.412 87.583 C 218.993 84.386,219.390 83.437,221.141 78.667 C 221.699 77.148,221.617 87.885,221.001 97.000 C 220.418 105.626,220.415 105.648,220.032 105.787 C 219.877 105.844,219.339 106.119,218.837 106.399 C 218.334 106.679,217.833 106.922,217.721 106.938 C 217.525 106.967,216.287 107.677,214.583 108.737 C 214.125 109.023,213.629 109.330,213.482 109.420 C 212.519 110.007,210.833 111.218,210.833 111.322 C 210.833 111.390,210.665 111.524,210.458 111.618 C 210.092 111.785,209.781 112.032,208.161 113.438 C 206.066 115.256,201.424 120.185,199.863 122.250 C 199.113 123.241,197.717 125.140,197.585 125.347 C 197.492 125.493,197.126 126.055,196.770 126.597 C 195.343 128.772,195.167 129.065,195.167 129.265 C 195.167 129.379,195.101 129.497,195.021 129.528 C 194.903 129.573,194.140 130.940,192.999 133.152 C 192.506 134.109,191.667 135.969,191.667 136.106 C 191.667 136.197,191.491 136.641,191.276 137.094 C 190.484 138.763,189.185 143.254,188.417 146.976 C 187.286 152.454,188.158 159.501,190.417 163.148 C 194.227 169.299,204.478 170.369,212.750 165.478 C 213.117 165.261,213.620 164.971,213.868 164.834 C 214.288 164.600,216.182 163.269,216.769 162.794 C 217.658 162.076,218.657 161.118,220.727 159.000 C 222.096 157.600,225.049 153.402,226.532 150.750 C 227.246 149.473,229.833 144.172,229.833 143.986 C 229.833 143.896,230.028 143.439,230.265 142.971 C 230.502 142.502,230.868 141.623,231.079 141.018 C 232.975 135.555,234.504 130.764,234.495 130.315 C 234.493 130.188,234.750 129.108,235.067 127.917 C 235.384 126.725,235.711 125.375,235.795 124.917 C 235.878 124.458,236.139 123.183,236.375 122.083 C 236.610 120.983,236.885 119.558,236.986 118.917 C 237.086 118.275,237.388 116.400,237.656 114.750 C 238.117 111.916,238.604 108.094,239.081 103.583 L 239.293 101.583 242.198 98.667 C 245.220 95.632,246.902 93.788,248.581 91.667 C 249.126 90.979,249.668 90.318,249.786 90.196 C 249.904 90.075,250.000 89.925,250.001 89.863 C 250.001 89.801,250.245 89.474,250.542 89.136 C 251.191 88.401,251.945 87.395,253.130 85.686 C 255.075 82.880,256.000 81.496,256.000 81.392 C 256.000 81.331,256.174 81.049,256.386 80.766 C 257.092 79.824,259.243 76.029,260.496 73.514 C 261.217 72.069,261.835 70.722,261.834 70.598 C 261.834 70.514,262.085 69.914,262.393 69.264 C 262.701 68.615,263.006 67.915,263.071 67.708 C 263.185 67.347,263.260 67.333,265.220 67.332 C 266.336 67.332,267.550 67.252,267.917 67.155 C 269.213 66.812,270.856 66.126,271.324 65.732 C 271.585 65.513,271.881 65.333,271.981 65.333 C 272.082 65.333,272.769 64.800,273.509 64.149 C 274.248 63.497,274.887 62.998,274.928 63.039 C 274.969 63.080,274.747 64.232,274.435 65.599 C 273.744 68.621,272.755 74.147,272.498 76.417 C 272.394 77.333,272.191 79.096,272.047 80.333 C 271.722 83.119,271.673 90.319,271.966 92.250 C 272.828 97.924,273.878 101.059,275.960 104.167 C 279.558 109.539,288.075 112.147,293.713 109.602 C 294.008 109.469,294.401 109.317,294.585 109.265 C 294.769 109.212,295.319 108.907,295.808 108.585 C 296.296 108.263,296.753 108.000,296.824 108.000 C 297.498 108.000,302.302 103.105,304.047 100.640 C 304.394 100.151,304.975 99.340,305.339 98.838 C 305.702 98.336,306.000 97.868,306.000 97.797 C 306.000 97.726,306.262 97.302,306.583 96.855 C 306.904 96.409,307.167 95.991,307.167 95.927 C 307.167 95.863,307.379 95.497,307.639 95.113 C 307.899 94.730,308.226 94.192,308.365 93.917 C 308.504 93.642,308.899 92.892,309.243 92.250 C 309.587 91.608,310.040 90.746,310.250 90.333 C 310.460 89.921,310.804 89.246,311.015 88.833 C 311.226 88.421,311.486 87.896,311.591 87.667 C 311.697 87.438,312.052 86.688,312.380 86.000 C 313.060 84.575,314.001 82.434,314.910 80.250 C 315.253 79.425,315.750 78.262,316.014 77.667 C 316.278 77.071,316.639 76.171,316.815 75.667 C 316.991 75.162,317.304 74.337,317.509 73.833 C 317.715 73.329,318.073 72.443,318.304 71.865 C 318.765 70.714,318.890 70.750,319.073 72.083 C 319.136 72.542,319.415 73.775,319.693 74.824 C 319.972 75.874,320.228 76.959,320.263 77.237 C 320.338 77.825,321.280 80.879,322.098 83.183 C 322.411 84.063,322.667 84.864,322.667 84.963 C 322.667 85.062,322.898 85.644,323.182 86.256 L 323.697 87.369 323.182 87.901 C 322.898 88.193,322.667 88.508,322.667 88.600 C 322.667 88.692,322.404 89.022,322.083 89.333 C 321.762 89.644,321.500 89.990,321.500 90.102 C 321.500 90.214,321.437 90.331,321.359 90.361 C 321.282 90.392,320.874 90.873,320.453 91.430 C 320.031 91.987,319.569 92.540,319.426 92.659 C 319.284 92.777,319.167 92.966,319.167 93.078 C 319.167 93.190,319.009 93.425,318.815 93.599 C 318.521 93.865,316.363 96.773,315.500 98.065 C 315.075 98.702,313.980 100.387,313.593 101.000 C 313.390 101.321,312.964 101.996,312.646 102.500 C 309.371 107.686,308.114 112.560,309.251 115.660 C 310.800 119.882,315.318 120.506,315.337 116.500 C 315.354 112.952,316.310 109.322,318.125 105.917 C 318.271 105.642,318.594 105.035,318.843 104.569 C 319.091 104.103,319.491 103.411,319.731 103.031 C 319.970 102.651,320.167 102.294,320.167 102.238 C 320.167 102.182,320.450 101.712,320.796 101.193 C 321.142 100.674,321.499 100.131,321.588 99.986 C 321.751 99.719,323.203 97.586,323.667 96.930 C 323.804 96.736,324.467 95.846,325.140 94.952 L 326.364 93.328 326.666 93.712 C 326.832 93.923,327.141 94.430,327.352 94.839 C 327.738 95.586,330.202 99.365,330.609 99.833 C 330.728 99.971,331.433 100.786,332.174 101.645 C 334.006 103.767,336.645 106.043,338.597 107.186 C 346.054 111.550,355.336 111.570,360.492 107.231 C 360.752 107.012,361.020 106.833,361.087 106.833 C 361.243 106.833,362.162 106.066,363.782 104.583 C 365.407 103.096,365.382 103.121,366.667 101.670 C 367.262 100.997,368.031 100.131,368.375 99.746 C 368.719 99.361,369.000 98.964,369.000 98.865 C 369.000 98.765,369.103 98.623,369.230 98.550 C 369.441 98.427,370.706 96.736,371.365 95.695 C 371.520 95.450,371.711 95.175,371.790 95.083 C 372.052 94.780,373.833 92.034,373.833 91.933 C 373.833 91.879,374.096 91.469,374.417 91.022 C 374.737 90.576,375.000 90.157,375.000 90.092 C 375.000 90.026,375.247 89.585,375.550 89.112 C 375.852 88.638,376.276 87.912,376.491 87.500 C 376.707 87.087,376.984 86.632,377.108 86.487 C 377.232 86.342,377.333 86.123,377.333 86.000 C 377.333 85.877,377.435 85.658,377.559 85.513 C 377.682 85.368,377.954 84.912,378.163 84.500 C 378.371 84.087,378.646 83.563,378.773 83.333 C 378.901 83.104,379.627 81.679,380.389 80.167 C 381.150 78.654,381.854 77.267,381.953 77.083 C 382.263 76.514,384.430 72.040,385.666 69.417 C 386.314 68.042,387.100 66.392,387.413 65.750 C 389.124 62.236,389.027 61.213,386.991 61.275 C 385.636 61.317,385.145 61.749,384.220 63.716 C 383.780 64.651,383.127 65.979,382.768 66.667 C 380.640 70.746,380.240 71.511,379.760 72.417 C 379.468 72.967,379.058 73.698,378.848 74.042 C 378.639 74.385,378.508 74.667,378.557 74.667 C 378.607 74.667,378.389 75.059,378.074 75.538 C 377.758 76.017,377.500 76.478,377.500 76.562 C 377.500 76.647,377.238 77.111,376.917 77.594 C 376.596 78.078,376.333 78.535,376.333 78.612 C 376.332 78.688,376.103 79.087,375.823 79.500 C 375.544 79.912,375.075 80.688,374.783 81.224 C 373.926 82.789,373.777 83.040,373.207 83.883 C 372.910 84.323,372.667 84.728,372.667 84.783 C 372.667 84.837,372.404 85.278,372.083 85.761 C 371.762 86.244,371.500 86.681,371.500 86.732 C 371.500 87.089,366.148 94.793,365.721 95.050 C 365.600 95.123,365.500 95.261,365.500 95.357 C 365.500 95.716,361.162 100.341,360.166 101.043 C 358.481 102.232,357.752 102.502,356.231 102.497 C 352.843 102.487,349.514 100.323,346.319 96.052 C 345.685 95.206,345.167 94.461,345.167 94.399 C 345.167 94.336,344.916 93.902,344.609 93.434 C 344.031 92.552,341.667 87.810,341.667 87.533 C 341.667 87.446,341.478 86.949,341.248 86.428 C 340.805 85.425,339.527 81.564,339.111 79.969 L 338.864 79.021 341.557 76.365 C 343.038 74.905,345.108 72.894,346.156 71.897 C 347.204 70.899,348.369 69.783,348.745 69.417 C 349.121 69.050,349.983 68.262,350.662 67.667 C 351.340 67.071,352.087 66.387,352.323 66.148 C 352.558 65.908,353.912 64.678,355.333 63.413 C 358.031 61.013,358.807 60.311,359.397 59.743 C 359.591 59.556,360.988 58.321,362.500 57.000 C 370.663 49.870,371.525 48.471,369.139 46.227 C 367.256 44.456,361.739 44.889,360.860 46.878 C 360.807 46.999,360.477 47.386,358.917 49.155 C 358.042 50.146,355.651 52.667,352.740 55.667 C 351.450 56.996,349.462 59.052,348.322 60.236 C 347.183 61.419,345.762 62.892,345.167 63.509 C 344.571 64.126,343.296 65.473,342.333 66.503 C 341.371 67.533,340.321 68.651,340.000 68.988 C 339.679 69.325,338.936 70.137,338.348 70.793 C 337.150 72.132,337.063 72.147,336.911 71.038 C 336.851 70.605,336.581 69.050,336.311 67.583 C 335.695 64.243,335.515 62.044,335.342 55.750 C 335.144 48.535,334.660 46.424,332.826 44.775 C 329.764 42.023,320.858 42.766,319.124 45.919 C 319.010 46.127,318.706 46.638,318.448 47.055 C 317.121 49.205,316.655 55.274,317.351 61.373 C 317.578 63.365,317.625 63.160,316.062 66.946 C 315.753 67.695,315.500 68.382,315.500 68.472 C 315.500 68.562,315.287 69.111,315.026 69.693 C 314.766 70.274,314.455 71.050,314.335 71.417 C 314.216 71.783,313.904 72.528,313.642 73.071 C 313.381 73.615,313.167 74.145,313.167 74.250 C 313.167 74.355,312.938 74.913,312.659 75.489 C 312.380 76.066,312.012 76.885,311.843 77.310 C 311.301 78.669,310.385 80.742,309.934 81.633 C 309.693 82.109,309.492 82.554,309.488 82.624 C 309.480 82.768,306.598 88.528,305.965 89.667 C 305.735 90.079,305.339 90.792,305.084 91.250 C 304.829 91.708,304.481 92.308,304.310 92.583 C 298.725 101.576,294.659 104.991,291.304 103.507 C 287.917 102.009,287.429 95.066,289.861 83.000 C 290.148 81.579,290.444 80.042,290.520 79.583 C 290.596 79.125,290.890 77.850,291.174 76.750 C 291.458 75.650,291.951 73.737,292.270 72.500 C 293.344 68.333,294.696 63.663,295.841 60.167 C 297.376 55.477,297.293 52.463,295.578 50.625 C 295.258 50.281,294.951 50.000,294.897 50.000 C 294.842 50.000,294.513 49.774,294.164 49.498 C 293.815 49.221,293.242 48.876,292.890 48.730 C 292.538 48.585,291.950 48.332,291.583 48.170 C 288.100 46.626,283.728 46.748,282.038 48.438 C 281.912 48.564,281.731 48.667,281.635 48.667 C 281.122 48.667,279.283 50.917,278.083 53.012 C 277.280 54.416,277.229 54.494,276.882 54.881 C 276.699 55.084,276.321 55.591,276.040 56.008 C 273.806 59.330,270.111 61.732,267.217 61.744 L 265.684 61.750 265.033 61.116 C 263.652 59.767,263.727 56.752,265.257 52.167 C 266.585 48.185,266.937 47.305,268.368 44.379 C 269.329 42.414,268.862 41.498,266.144 40.018 C 264.896 39.337,264.517 39.202,261.667 38.410 C 259.136 37.708,256.025 37.897,254.000 38.877 C 253.588 39.077,253.153 39.255,253.036 39.273 C 252.761 39.315,251.494 40.427,251.167 40.913 C 251.029 41.117,250.772 41.489,250.596 41.740 C 249.732 42.970,248.699 49.049,248.913 51.641 C 249.167 54.716,249.837 57.936,250.477 59.155 C 252.245 62.528,254.001 64.249,257.291 65.831 C 258.317 66.324,258.482 66.461,258.395 66.747 C 258.280 67.128,256.078 71.401,254.959 73.417 C 253.403 76.222,251.145 79.998,250.480 80.908 C 250.216 81.270,250.000 81.657,250.000 81.769 C 250.000 81.881,249.944 81.997,249.875 82.028 C 249.690 82.110,248.833 83.287,248.833 83.459 C 248.833 83.540,248.571 83.913,248.250 84.288 C 247.929 84.663,247.667 85.009,247.667 85.058 C 247.667 85.106,247.198 85.758,246.625 86.506 C 246.052 87.253,245.474 88.027,245.340 88.224 C 245.206 88.422,244.848 88.883,244.543 89.250 C 244.238 89.617,243.785 90.172,243.536 90.483 C 242.933 91.238,239.166 95.000,239.013 95.000 C 238.947 95.000,238.954 94.494,239.029 93.875 C 239.103 93.256,239.239 91.325,239.330 89.583 C 239.421 87.842,239.569 85.329,239.659 84.000 C 240.188 76.174,240.328 47.751,239.845 46.169 C 239.209 44.086,236.842 42.011,234.642 41.607 C 234.426 41.568,233.800 41.398,233.250 41.230 C 231.584 40.720,228.517 40.794,227.333 41.371 C 224.711 42.651,224.223 43.751,222.437 52.417 C 221.271 58.073,219.469 65.606,218.469 69.000 C 218.185 69.962,217.921 70.938,217.882 71.167 C 217.659 72.472,215.524 78.909,214.637 80.949 C 214.470 81.334,214.333 81.727,214.333 81.823 C 214.333 81.920,214.071 82.567,213.750 83.261 C 213.429 83.956,213.167 84.578,213.167 84.644 C 213.167 85.167,209.222 92.215,208.676 92.667 C 208.621 92.712,208.446 92.954,208.288 93.202 C 208.130 93.451,207.844 93.826,207.653 94.036 C 206.255 95.571,205.833 96.071,205.833 96.193 C 205.833 96.270,205.726 96.333,205.595 96.333 C 205.465 96.333,205.214 96.516,205.039 96.738 C 204.079 97.959,200.972 99.167,198.793 99.167 C 193.431 99.167,192.654 91.960,195.837 71.750 C 196.198 69.458,196.519 67.321,196.551 67.000 C 196.583 66.679,196.850 65.029,197.145 63.333 C 197.439 61.637,197.942 58.750,198.261 56.917 C 198.580 55.083,199.102 52.196,199.422 50.500 C 200.021 47.320,200.145 45.350,199.786 44.740 C 198.754 42.989,196.609 41.782,194.083 41.532 C 190.910 41.218,187.216 41.463,185.557 42.097 C 184.930 42.337,184.168 42.619,183.863 42.725 C 182.077 43.344,180.140 45.602,179.908 47.333 C 179.853 47.746,179.554 49.137,179.243 50.425 C 178.933 51.713,178.638 53.101,178.588 53.509 C 178.538 53.916,178.278 55.225,178.009 56.417 C 177.741 57.608,177.476 58.996,177.419 59.500 C 177.228 61.206,176.972 62.414,176.652 63.116 C 176.477 63.500,176.332 63.913,176.331 64.033 C 176.329 64.152,176.029 64.921,175.664 65.742 C 175.299 66.562,175.000 67.298,175.000 67.376 C 175.000 67.518,174.289 69.263,173.229 71.722 C 172.920 72.441,172.667 73.091,172.667 73.169 C 172.667 73.246,172.404 73.877,172.083 74.572 C 171.762 75.266,171.501 75.891,171.501 75.959 C 171.502 76.086,170.495 78.440,169.666 80.250 C 169.414 80.800,168.917 81.884,168.562 82.658 C 168.207 83.432,167.913 84.107,167.907 84.158 C 167.890 84.327,164.437 91.141,163.384 93.083 C 163.235 93.358,163.055 93.696,162.983 93.833 C 162.134 95.475,159.700 99.243,158.516 100.750 C 154.335 106.073,152.380 105.465,151.407 98.541 C 151.109 96.422,151.053 83.028,151.327 79.417 C 152.028 70.194,152.964 60.151,153.177 59.570 C 153.246 59.379,153.892 58.539,154.610 57.703 C 155.329 56.868,156.072 55.974,156.261 55.717 C 157.099 54.580,158.333 52.714,158.333 52.585 C 158.333 52.507,158.436 52.325,158.563 52.180 C 159.199 51.449,162.457 44.889,163.163 42.917 C 163.327 42.458,163.647 41.596,163.873 41.000 C 164.404 39.603,164.978 37.948,165.261 37.000 C 166.000 34.521,166.672 32.046,166.669 31.813 C 166.668 31.664,166.845 30.839,167.062 29.980 C 167.483 28.316,167.683 27.183,168.075 24.250 C 168.739 19.280,168.789 15.658,168.234 12.845 C 168.097 12.151,167.918 11.199,167.838 10.730 C 167.003 5.870,162.522 3.665,155.667 4.743 M163.482 11.388 C 164.441 12.939,164.638 19.729,163.860 24.417 C 163.678 25.517,163.443 26.979,163.338 27.667 C 163.234 28.354,162.878 30.042,162.549 31.417 C 162.220 32.792,161.931 34.078,161.908 34.274 C 161.859 34.692,160.974 37.571,160.378 39.250 C 160.150 39.892,159.793 40.904,159.584 41.500 C 159.147 42.744,158.567 44.082,157.738 45.750 C 157.420 46.392,157.161 46.986,157.163 47.070 C 157.165 47.155,157.065 47.342,156.941 47.487 C 156.818 47.632,156.537 48.087,156.317 48.500 C 155.845 49.389,154.151 51.874,154.072 51.794 C 154.042 51.764,154.161 50.429,154.337 48.828 C 154.513 47.227,154.731 44.829,154.822 43.500 C 154.912 42.171,155.214 39.382,155.493 37.303 C 155.772 35.223,155.998 33.311,155.995 33.053 C 155.985 32.169,157.192 24.919,157.765 22.417 C 158.080 21.042,158.336 19.792,158.335 19.641 C 158.334 19.489,158.598 18.551,158.922 17.557 C 159.245 16.563,159.587 15.507,159.682 15.209 C 160.725 11.933,162.633 10.014,163.482 11.388 M220.167 112.078 C 220.167 112.468,219.674 115.959,219.413 117.417 C 219.282 118.150,219.132 119.125,219.080 119.583 C 218.929 120.906,217.880 125.879,217.246 128.276 C 216.927 129.482,216.669 130.569,216.671 130.693 C 216.679 131.089,214.594 137.924,213.730 140.333 C 213.418 141.204,213.164 142.001,213.165 142.104 C 213.166 142.207,212.970 142.732,212.730 143.271 C 212.490 143.809,212.162 144.625,212.001 145.083 C 211.840 145.542,211.518 146.329,211.286 146.833 C 211.055 147.337,210.548 148.462,210.160 149.333 C 209.772 150.204,209.202 151.339,208.894 151.855 C 208.586 152.371,208.333 152.844,208.333 152.905 C 208.333 152.966,208.071 153.426,207.750 153.928 C 207.429 154.429,207.167 154.881,207.167 154.932 C 207.167 155.064,205.715 157.094,204.853 158.167 C 200.708 163.323,195.598 163.198,193.445 157.887 L 192.917 156.583 192.917 153.417 C 192.917 149.897,193.357 147.395,194.607 143.814 C 194.915 142.933,195.167 142.130,195.167 142.032 C 195.167 141.933,195.422 141.291,195.735 140.605 C 196.047 139.920,196.356 139.184,196.421 138.971 C 196.633 138.276,199.165 133.284,200.000 131.917 C 200.448 131.183,200.949 130.351,201.115 130.068 C 201.739 129.001,202.956 127.242,203.223 127.021 C 203.375 126.895,203.500 126.703,203.500 126.594 C 203.500 126.485,203.654 126.231,203.842 126.029 C 204.030 125.827,204.791 124.894,205.533 123.956 C 207.786 121.106,212.785 116.294,214.912 114.928 C 215.185 114.753,215.555 114.473,215.735 114.305 C 215.916 114.137,216.129 114.000,216.210 114.000 C 216.291 114.000,216.687 113.772,217.092 113.494 C 218.808 112.314,220.167 111.688,220.167 112.078 " stroke="none" fill="#3c3c3c" fill-rule="evenodd"></path><path id="path2" d="M75.333 10.002 C 75.157 10.118,75.256 10.134,75.667 10.059 C 76.385 9.927,76.521 9.832,75.986 9.836 C 75.765 9.837,75.471 9.912,75.333 10.002 M114.683 10.875 C 114.723 10.898,115.091 11.217,115.503 11.583 L 116.250 12.250 115.591 11.542 C 115.229 11.152,114.860 10.833,114.772 10.833 C 114.683 10.833,114.644 10.852,114.683 10.875 M66.735 14.430 L 65.750 15.360 66.792 14.476 C 67.365 13.990,67.833 13.572,67.833 13.546 C 67.833 13.420,67.643 13.573,66.735 14.430 M117.189 16.528 C 117.177 16.681,117.118 16.943,117.059 17.111 C 116.976 17.347,116.998 17.374,117.156 17.228 C 117.269 17.124,117.328 16.861,117.287 16.644 C 117.246 16.427,117.202 16.375,117.189 16.528 M63.875 17.875 C 63.640 18.169,63.143 19.167,63.231 19.167 C 63.272 19.167,63.493 18.829,63.724 18.417 C 64.139 17.673,64.195 17.473,63.875 17.875 M86.042 21.458 C 90.785 21.483,98.548 21.483,103.292 21.458 C 108.035 21.434,104.154 21.414,94.667 21.414 C 85.179 21.414,81.298 21.434,86.042 21.458 M74.418 22.998 C 74.156 23.272,73.973 23.523,74.012 23.556 C 74.051 23.588,74.297 23.364,74.558 23.057 C 75.148 22.365,75.060 22.328,74.418 22.998 M83.605 36.515 C 83.547 36.805,83.511 37.464,83.524 37.979 C 83.545 38.796,83.564 38.734,83.673 37.500 C 83.805 36.003,83.780 35.642,83.605 36.515 M117.102 36.417 C 117.239 37.029,117.334 37.163,117.331 36.736 C 117.329 36.560,117.252 36.304,117.159 36.167 C 117.036 35.984,117.020 36.052,117.102 36.417 M116.500 40.459 C 116.500 40.559,116.296 40.891,116.048 41.196 C 115.675 41.651,115.663 41.691,115.980 41.419 C 116.429 41.031,116.735 40.513,116.597 40.375 C 116.544 40.321,116.500 40.360,116.500 40.459 M84.500 40.941 C 84.500 41.031,84.744 41.325,85.042 41.594 L 85.583 42.083 85.083 41.501 C 84.808 41.180,84.565 40.887,84.542 40.848 C 84.519 40.809,84.500 40.851,84.500 40.941 M94.471 43.625 C 97.800 43.650,103.200 43.650,106.471 43.625 C 109.741 43.600,107.017 43.579,100.417 43.579 C 93.817 43.579,91.141 43.600,94.471 43.625 M91.750 54.121 C 100.167 54.234,112.783 54.238,112.609 54.128 C 112.503 54.060,107.017 54.021,100.417 54.041 C 93.817 54.060,89.917 54.096,91.750 54.121 M34.542 54.615 C 34.702 54.657,34.965 54.657,35.125 54.615 C 35.285 54.573,35.154 54.539,34.833 54.539 C 34.512 54.539,34.381 54.573,34.542 54.615 M44.208 54.615 C 44.369 54.657,44.631 54.657,44.792 54.615 C 44.952 54.573,44.821 54.539,44.500 54.539 C 44.179 54.539,44.048 54.573,44.208 54.615 M32.667 54.831 C 32.496 54.940,32.629 54.958,33.083 54.888 C 33.907 54.762,34.047 54.666,33.403 54.669 C 33.135 54.671,32.804 54.743,32.667 54.831 M47.681 55.227 C 47.719 55.259,47.975 55.337,48.250 55.398 C 48.615 55.480,48.683 55.464,48.500 55.341 C 48.275 55.189,47.513 55.082,47.681 55.227 M116.131 56.566 C 116.380 56.969,116.613 57.270,116.649 57.236 C 116.723 57.166,115.872 55.833,115.754 55.833 C 115.713 55.833,115.883 56.163,116.131 56.566 M117.100 58.611 C 117.254 59.250,117.333 59.310,117.333 58.788 C 117.333 58.549,117.255 58.305,117.160 58.246 C 117.046 58.176,117.026 58.301,117.100 58.611 M22.810 58.677 L 22.417 59.020 22.917 58.727 C 23.575 58.342,23.585 58.333,23.380 58.333 C 23.283 58.333,23.027 58.488,22.810 58.677 M20.789 59.923 C 20.447 60.155,20.167 60.381,20.167 60.425 C 20.167 60.469,20.467 60.306,20.833 60.064 C 21.416 59.678,21.612 59.500,21.455 59.500 C 21.431 59.500,21.131 59.690,20.789 59.923 M83.575 60.442 C 83.606 61.006,83.718 61.606,83.824 61.776 C 83.991 62.043,84.001 62.029,83.899 61.667 C 83.835 61.438,83.723 60.837,83.650 60.333 L 83.517 59.417 83.575 60.442 M19.203 61.125 C 18.804 61.515,18.798 61.534,19.159 61.252 C 19.870 60.698,19.904 60.667,19.786 60.667 C 19.723 60.667,19.461 60.873,19.203 61.125 M117.131 61.088 C 117.080 61.269,116.987 61.567,116.925 61.750 C 116.863 61.933,116.934 61.873,117.083 61.615 C 117.232 61.357,117.325 61.059,117.290 60.953 C 117.254 60.846,117.183 60.907,117.131 61.088 M115.654 63.773 C 115.432 64.016,114.917 64.428,114.509 64.690 C 114.102 64.952,113.847 65.167,113.942 65.167 C 114.176 65.167,115.318 64.319,115.821 63.773 C 116.043 63.531,116.187 63.333,116.141 63.333 C 116.096 63.333,115.876 63.531,115.654 63.773 M15.577 64.375 L 14.750 65.250 15.625 64.423 C 16.106 63.968,16.500 63.574,16.500 63.548 C 16.500 63.424,16.346 63.562,15.577 64.375 M87.976 65.542 C 88.060 65.626,88.306 65.667,88.522 65.633 C 88.856 65.580,88.833 65.557,88.370 65.480 C 88.039 65.425,87.883 65.450,87.976 65.542 M94.721 65.625 C 97.913 65.650,103.088 65.650,106.221 65.625 C 109.353 65.600,106.742 65.579,100.417 65.579 C 94.092 65.579,91.528 65.600,94.721 65.625 M8.429 75.429 C 8.367 75.673,8.349 75.905,8.389 75.944 C 8.428 75.983,8.510 75.816,8.571 75.571 C 8.633 75.327,8.651 75.095,8.611 75.056 C 8.572 75.017,8.490 75.184,8.429 75.429 M94.875 76.292 C 97.969 76.317,103.031 76.317,106.125 76.292 C 109.219 76.266,106.688 76.245,100.500 76.245 C 94.313 76.245,91.781 76.266,94.875 76.292 M115.000 77.385 C 115.000 77.414,115.244 77.658,115.542 77.927 L 116.083 78.417 115.594 77.875 C 115.138 77.370,115.000 77.257,115.000 77.385 M117.100 80.778 C 117.254 81.416,117.333 81.477,117.333 80.954 C 117.333 80.715,117.255 80.471,117.160 80.413 C 117.046 80.342,117.026 80.468,117.100 80.778 M6.771 81.090 C 6.713 81.239,6.674 81.523,6.684 81.722 C 6.695 81.950,6.751 81.869,6.838 81.501 C 6.983 80.882,6.944 80.639,6.771 81.090 M83.542 82.250 C 83.544 82.617,83.578 82.747,83.618 82.540 C 83.658 82.332,83.656 82.032,83.615 81.873 C 83.573 81.714,83.540 81.883,83.542 82.250 M6.437 82.590 C 6.380 82.739,6.343 83.136,6.356 83.472 C 6.375 84.018,6.391 83.995,6.498 83.250 C 6.626 82.363,6.606 82.149,6.437 82.590 M117.186 82.945 C 117.175 83.052,117.118 83.277,117.059 83.445 C 116.975 83.682,116.997 83.707,117.158 83.559 C 117.272 83.455,117.329 83.230,117.285 83.059 C 117.241 82.889,117.197 82.838,117.186 82.945 M83.669 83.431 C 83.671 83.606,83.748 83.862,83.841 84.000 C 83.964 84.183,83.980 84.115,83.898 83.750 C 83.761 83.137,83.666 83.004,83.669 83.431 M84.667 85.435 C 84.667 85.528,84.910 85.825,85.208 86.094 L 85.749 86.583 85.335 86.083 C 85.108 85.808,84.864 85.512,84.794 85.425 C 84.715 85.327,84.667 85.331,84.667 85.435 M115.406 86.208 L 114.917 86.750 115.458 86.260 C 115.756 85.991,116.000 85.748,116.000 85.719 C 116.000 85.590,115.862 85.703,115.406 86.208 M94.971 87.792 C 98.209 87.817,103.459 87.817,106.637 87.792 C 109.816 87.766,107.167 87.746,100.750 87.746 C 94.333 87.746,91.733 87.766,94.971 87.792 M72.709 91.583 C 72.711 91.950,72.745 92.080,72.785 91.873 C 72.824 91.666,72.823 91.366,72.781 91.206 C 72.739 91.047,72.707 91.217,72.709 91.583 M6.345 91.764 C 6.351 92.031,6.423 92.400,6.504 92.583 C 6.603 92.806,6.619 92.667,6.553 92.167 C 6.436 91.283,6.328 91.075,6.345 91.764 M67.176 106.292 C 66.871 106.727,66.763 106.957,66.936 106.803 C 67.238 106.533,67.916 105.500,67.792 105.500 C 67.758 105.500,67.481 105.856,67.176 106.292 M13.318 108.305 C 13.408 108.473,13.613 108.717,13.773 108.847 C 13.953 108.993,13.913 108.877,13.667 108.542 C 13.229 107.944,13.065 107.833,13.318 108.305 M15.417 110.667 C 16.053 111.308,16.612 111.833,16.658 111.833 C 16.704 111.833,16.220 111.308,15.583 110.667 C 14.947 110.025,14.388 109.500,14.342 109.500 C 14.296 109.500,14.780 110.025,15.417 110.667 M57.917 115.422 C 57.265 115.956,57.440 115.953,58.167 115.417 C 58.477 115.188,58.661 115.003,58.574 115.006 C 58.487 115.009,58.192 115.196,57.917 115.422 M26.240 118.241 C 26.418 118.383,26.681 118.494,26.824 118.487 C 27.048 118.475,27.049 118.461,26.833 118.381 C 26.696 118.330,26.433 118.219,26.250 118.135 C 25.922 117.984,25.922 117.986,26.240 118.241 M51.542 118.672 C 50.984 118.896,51.088 119.010,51.667 118.808 C 51.942 118.712,52.167 118.604,52.167 118.567 C 52.167 118.468,51.964 118.502,51.542 118.672 M35.833 120.874 C 35.833 120.943,36.340 120.990,36.958 120.977 C 38.124 120.954,37.995 120.884,36.625 120.798 C 36.190 120.770,35.833 120.804,35.833 120.874 M41.960 120.951 C 42.168 120.991,42.468 120.990,42.627 120.948 C 42.786 120.906,42.617 120.874,42.250 120.875 C 41.883 120.877,41.753 120.911,41.960 120.951 " stroke="none" fill="#5050f8" fill-rule="evenodd"></path><path id="path3" d="" stroke="none" fill="#50506c" fill-rule="evenodd"></path><path id="path4" d="" stroke="none" fill="#54503c" fill-rule="evenodd"></path></g></svg>