<svg id="svg" version="1.1" xmlns="http://www.w3.org/2000/svg" xmlns:xlink="http://www.w3.org/1999/xlink" width="400" height="171.05263157894737" viewBox="0, 0, 400,171.05263157894737"><g id="svgg"><path id="path0" d="M155.667 4.744 C 152.029 5.320,148.782 7.337,147.531 9.798 C 146.687 11.460,145.086 15.595,144.388 17.917 C 144.251 18.375,143.922 19.462,143.658 20.333 C 143.395 21.204,143.130 22.142,143.069 22.417 C 143.009 22.692,142.710 23.779,142.404 24.833 C 142.098 25.887,141.804 27.012,141.751 27.333 C 141.697 27.654,141.402 28.929,141.095 30.167 C 139.141 38.036,136.316 52.958,135.904 57.583 C 135.855 58.133,135.635 60.083,135.415 61.917 C 133.193 80.435,134.107 97.296,137.688 103.844 C 137.951 104.326,138.167 104.786,138.167 104.867 C 138.167 106.105,142.452 110.240,143.833 110.335 C 143.879 110.338,144.285 110.452,144.735 110.587 C 145.256 110.744,146.253 110.832,147.485 110.830 C 153.361 110.822,157.159 108.900,162.121 103.424 C 162.453 103.058,163.598 101.604,164.040 100.987 C 165.035 99.599,165.333 99.160,165.333 99.085 C 165.333 99.039,165.596 98.635,165.917 98.189 C 166.237 97.742,166.500 97.331,166.500 97.274 C 166.500 97.218,166.725 96.807,166.999 96.360 C 167.786 95.082,168.425 93.888,169.333 92.000 C 169.797 91.037,170.473 89.636,170.838 88.885 C 171.202 88.134,171.500 87.449,171.500 87.362 C 171.500 87.275,171.762 86.672,172.083 86.023 C 172.404 85.374,172.667 84.773,172.667 84.689 C 172.667 84.604,172.898 83.991,173.181 83.326 C 173.464 82.662,173.720 81.987,173.751 81.826 C 173.782 81.666,174.068 80.908,174.386 80.142 C 174.704 79.377,175.040 78.487,175.132 78.167 C 175.273 77.674,175.304 77.854,175.329 79.333 C 175.345 80.296,175.382 81.233,175.411 81.417 C 175.441 81.600,175.511 82.591,175.568 83.620 C 176.062 92.535,179.136 99.226,184.140 102.282 C 185.484 103.102,188.155 104.257,189.098 104.424 C 189.457 104.488,190.162 104.647,190.667 104.778 C 195.317 105.986,200.240 105.736,203.667 104.119 C 204.080 103.924,205.840 102.828,206.000 102.667 C 206.046 102.620,206.496 102.269,207.000 101.886 C 208.234 100.949,211.833 97.212,211.833 96.868 C 211.833 96.780,211.955 96.606,212.105 96.482 C 212.404 96.234,214.333 93.417,214.333 93.228 C 214.333 93.163,214.438 92.991,214.566 92.846 C 215.612 91.666,219.191 84.080,220.785 79.667 L 221.417 77.917 221.463 83.750 C 221.499 88.285,221.434 90.678,221.171 94.500 C 220.984 97.204,220.753 100.579,220.656 102.000 C 220.560 103.421,220.464 104.841,220.442 105.155 C 220.410 105.624,220.315 105.756,219.914 105.890 C 219.645 105.979,219.064 106.266,218.622 106.526 C 218.180 106.787,217.756 107.000,217.680 107.000 C 217.281 107.000,210.833 111.085,210.833 111.337 C 210.833 111.398,210.571 111.589,210.250 111.762 C 209.929 111.934,209.667 112.124,209.667 112.182 C 209.667 112.241,209.385 112.476,209.040 112.703 C 208.160 113.286,203.709 117.741,201.916 119.833 C 201.091 120.796,200.360 121.608,200.292 121.639 C 200.223 121.669,200.167 121.773,200.167 121.869 C 200.167 121.965,199.923 122.329,199.625 122.679 C 198.908 123.522,198.501 124.064,197.637 125.327 C 196.233 127.380,195.670 128.256,195.422 128.781 C 195.284 129.073,194.988 129.581,194.765 129.910 C 194.269 130.641,191.667 135.884,191.667 136.152 C 191.667 136.258,191.491 136.698,191.276 137.131 C 191.061 137.563,190.542 139.004,190.123 140.333 C 183.973 159.834,191.308 171.893,206.830 167.800 C 207.519 167.618,208.233 167.440,208.417 167.405 C 208.600 167.369,208.900 167.270,209.083 167.185 C 209.267 167.100,209.754 166.880,210.167 166.698 C 211.789 165.979,212.443 165.664,213.083 165.295 C 213.936 164.803,216.125 163.311,216.667 162.851 C 217.549 162.104,219.570 160.235,219.821 159.936 C 219.965 159.764,220.406 159.284,220.801 158.870 C 221.484 158.153,223.229 155.952,223.583 155.361 C 223.674 155.208,224.017 154.708,224.345 154.250 C 226.399 151.383,229.170 145.896,231.038 141.000 C 232.297 137.703,234.185 131.812,234.489 130.240 C 234.576 129.787,234.844 128.744,235.084 127.921 C 235.324 127.098,235.560 126.123,235.609 125.754 C 235.657 125.385,235.919 124.150,236.190 123.009 C 236.461 121.868,236.753 120.406,236.839 119.759 C 236.925 119.112,237.148 117.758,237.335 116.750 C 237.833 114.060,238.696 107.523,239.149 103.000 L 239.292 101.583 242.271 98.581 C 245.067 95.763,245.713 95.070,247.167 93.333 C 247.487 92.950,247.868 92.512,248.012 92.360 C 248.156 92.208,248.794 91.410,249.429 90.586 C 250.064 89.762,250.685 88.975,250.810 88.836 C 251.196 88.405,252.845 86.129,253.468 85.167 C 253.795 84.662,254.160 84.151,254.281 84.030 C 254.401 83.909,254.500 83.757,254.500 83.693 C 254.500 83.629,254.837 83.128,255.248 82.580 C 255.660 82.032,255.997 81.525,255.998 81.454 C 255.999 81.383,256.244 80.963,256.542 80.520 C 257.249 79.468,257.988 78.248,258.423 77.417 C 258.614 77.050,259.129 76.083,259.566 75.267 C 260.590 73.357,260.536 73.465,261.235 71.969 C 261.564 71.264,261.833 70.622,261.833 70.542 C 261.833 70.461,261.972 70.101,262.142 69.740 C 262.312 69.379,262.622 68.696,262.832 68.223 L 263.212 67.364 265.565 67.297 C 268.083 67.227,269.323 66.926,270.719 66.048 C 271.069 65.829,271.607 65.507,271.915 65.334 C 272.505 65.003,272.942 64.659,274.118 63.601 C 275.061 62.753,275.082 62.809,274.584 64.851 C 273.913 67.604,272.869 73.529,272.429 77.083 C 271.865 81.644,271.782 82.869,271.773 86.750 C 271.763 90.648,271.894 92.301,272.420 94.917 C 272.549 95.558,272.699 96.346,272.754 96.667 C 273.424 100.629,276.743 106.025,279.667 107.905 C 283.841 110.590,289.902 111.321,293.720 109.599 C 294.011 109.467,294.401 109.317,294.585 109.265 C 294.769 109.212,295.319 108.907,295.808 108.585 C 296.296 108.263,296.753 108.000,296.824 108.000 C 297.501 108.000,302.287 103.118,304.043 100.636 C 304.388 100.149,304.969 99.340,305.335 98.838 C 305.701 98.336,306.000 97.859,306.000 97.777 C 306.000 97.695,306.263 97.270,306.583 96.833 C 306.904 96.396,307.167 95.987,307.167 95.924 C 307.167 95.861,307.379 95.497,307.639 95.113 C 307.899 94.730,308.226 94.192,308.365 93.917 C 308.504 93.642,308.899 92.892,309.243 92.250 C 310.072 90.703,311.399 88.105,311.670 87.500 C 311.731 87.362,312.093 86.612,312.474 85.833 C 312.855 85.054,313.167 84.358,313.167 84.288 C 313.167 84.217,313.388 83.692,313.657 83.121 C 314.137 82.106,314.899 80.333,315.498 78.833 C 315.663 78.421,315.988 77.633,316.220 77.083 C 316.608 76.165,316.941 75.316,318.274 71.850 L 318.749 70.616 318.945 71.266 C 319.053 71.624,319.147 72.131,319.154 72.393 C 319.161 72.655,319.429 73.839,319.750 75.023 C 320.071 76.207,320.333 77.320,320.333 77.497 C 320.333 77.673,320.404 77.990,320.491 78.200 C 320.578 78.411,320.849 79.258,321.093 80.083 C 321.857 82.666,322.815 85.445,323.337 86.591 L 323.684 87.353 323.217 87.922 C 322.960 88.235,322.487 88.830,322.167 89.244 C 321.846 89.657,321.341 90.278,321.046 90.623 C 320.750 90.968,320.506 91.302,320.504 91.365 C 320.502 91.428,320.219 91.821,319.875 92.238 C 319.531 92.655,319.004 93.315,318.703 93.706 C 318.402 94.097,317.983 94.642,317.770 94.917 C 317.558 95.192,317.096 95.829,316.744 96.333 C 316.391 96.837,315.873 97.573,315.593 97.967 C 314.739 99.169,313.510 101.059,313.297 101.500 C 313.186 101.729,312.929 102.142,312.728 102.417 C 312.250 103.067,309.820 107.935,309.649 108.583 C 309.576 108.858,309.354 109.608,309.156 110.250 C 308.552 112.203,308.747 115.404,309.520 116.242 C 309.601 116.329,309.670 116.516,309.673 116.658 C 309.694 117.518,311.978 119.167,313.149 119.167 C 314.718 119.167,315.268 118.223,315.398 115.311 C 315.476 113.572,315.602 112.692,315.935 111.561 C 316.174 110.748,316.444 109.821,316.536 109.500 C 316.682 108.986,317.131 107.956,318.061 106.000 C 318.395 105.297,318.965 104.281,319.655 103.159 C 319.937 102.702,320.167 102.285,320.167 102.232 C 320.167 102.180,320.467 101.709,320.833 101.186 C 321.200 100.663,321.503 100.164,321.507 100.076 C 321.510 99.988,321.735 99.657,322.007 99.340 C 322.278 99.022,322.500 98.702,322.500 98.629 C 322.500 98.496,323.788 96.641,324.202 96.176 C 324.320 96.044,324.885 95.295,325.458 94.513 C 326.031 93.730,326.500 93.178,326.500 93.287 C 326.500 93.395,326.725 93.817,327.000 94.224 C 327.275 94.632,327.500 95.018,327.500 95.083 C 327.500 95.205,330.084 99.126,330.613 99.807 C 332.439 102.154,337.132 106.667,337.747 106.667 C 337.812 106.667,338.077 106.817,338.336 107.002 C 341.015 108.910,345.502 110.301,349.455 110.449 C 353.619 110.606,357.093 109.620,360.209 107.398 C 360.644 107.088,361.061 106.833,361.134 106.833 C 361.208 106.833,361.522 106.571,361.833 106.250 C 362.144 105.929,362.483 105.667,362.585 105.667 C 362.688 105.667,362.994 105.423,363.265 105.125 C 363.536 104.827,364.130 104.247,364.585 103.835 C 365.475 103.030,369.000 99.094,369.000 98.905 C 369.000 98.842,369.230 98.519,369.510 98.187 C 370.324 97.224,371.333 95.855,371.334 95.713 C 371.334 95.642,371.527 95.359,371.763 95.084 C 371.999 94.810,372.464 94.135,372.797 93.584 C 373.130 93.034,373.499 92.484,373.618 92.363 C 373.736 92.242,373.833 92.073,373.833 91.988 C 373.833 91.904,374.096 91.469,374.417 91.022 C 374.737 90.576,375.000 90.157,375.000 90.092 C 375.000 90.026,375.245 89.585,375.544 89.112 C 375.843 88.638,376.169 88.100,376.269 87.917 C 376.368 87.733,376.721 87.078,377.055 86.460 C 377.388 85.842,377.849 85.038,378.080 84.672 C 378.311 84.306,378.500 83.903,378.500 83.776 C 378.500 83.649,378.634 83.366,378.798 83.147 C 379.111 82.729,383.631 73.682,385.658 69.417 C 386.311 68.042,387.096 66.392,387.402 65.750 C 388.909 62.592,388.967 62.185,388.001 61.536 C 387.020 60.877,384.708 61.720,384.672 62.750 C 384.666 62.915,383.181 65.884,381.170 69.750 C 380.598 70.850,379.978 72.050,379.792 72.417 C 379.606 72.783,379.276 73.344,379.060 73.664 C 378.844 73.983,378.667 74.333,378.667 74.441 C 378.667 74.549,378.404 75.036,378.083 75.523 C 377.762 76.010,377.500 76.476,377.500 76.558 C 377.500 76.640,377.307 77.016,377.071 77.395 C 376.346 78.558,375.476 80.038,374.953 81.000 C 374.679 81.504,374.315 82.096,374.144 82.314 C 373.973 82.533,373.833 82.778,373.833 82.859 C 373.833 82.940,373.630 83.324,373.381 83.712 C 372.924 84.422,372.816 84.600,371.931 86.096 C 371.143 87.426,370.244 88.823,369.214 90.313 C 368.684 91.081,368.110 91.944,367.940 92.230 C 367.769 92.516,367.572 92.787,367.503 92.833 C 367.433 92.879,367.063 93.367,366.679 93.917 C 365.288 95.911,361.088 100.538,360.184 101.071 C 360.017 101.169,359.579 101.452,359.210 101.698 C 357.516 102.829,353.985 102.737,352.187 101.515 C 351.947 101.351,351.450 101.027,351.083 100.795 C 349.344 99.692,345.167 95.197,345.167 94.428 C 345.167 94.364,344.990 94.072,344.774 93.781 C 344.558 93.489,344.157 92.800,343.883 92.250 C 343.609 91.700,343.265 91.025,343.120 90.750 C 342.567 89.705,341.667 87.718,341.667 87.541 C 341.667 87.440,341.404 86.789,341.083 86.095 C 340.762 85.400,340.500 84.747,340.500 84.643 C 340.500 84.540,340.247 83.696,339.938 82.769 C 339.628 81.842,339.296 80.746,339.199 80.333 C 339.102 79.921,338.977 79.466,338.922 79.323 C 338.806 79.022,343.333 74.465,348.679 69.500 C 349.716 68.537,350.852 67.469,351.205 67.125 C 351.558 66.781,351.886 66.500,351.934 66.500 C 351.983 66.500,352.261 66.256,352.553 65.957 C 353.017 65.483,355.570 63.141,356.565 62.278 C 357.189 61.737,359.211 59.925,359.484 59.661 C 359.631 59.520,360.387 58.845,361.167 58.161 C 361.946 57.477,362.621 56.879,362.667 56.833 C 362.712 56.788,363.313 56.265,364.000 55.672 C 367.239 52.880,369.293 50.795,369.795 49.790 C 370.757 47.865,369.705 45.906,367.333 45.209 C 367.196 45.168,366.344 45.134,365.440 45.134 C 362.910 45.132,362.043 45.609,359.691 48.300 C 358.122 50.095,357.035 51.248,352.426 56.008 C 346.528 62.099,341.790 67.066,340.043 68.989 C 339.746 69.316,338.980 70.140,338.341 70.821 L 337.181 72.059 337.007 71.602 C 336.911 71.351,336.833 70.921,336.833 70.647 C 336.833 70.373,336.727 69.647,336.597 69.033 C 335.729 64.932,335.515 62.772,335.405 57.000 C 335.194 45.950,334.149 43.923,328.267 43.156 C 325.363 42.777,321.823 43.478,320.468 44.700 C 320.165 44.974,319.804 45.284,319.665 45.391 C 319.230 45.725,318.148 47.432,317.999 48.020 C 317.921 48.330,317.746 48.975,317.611 49.454 C 316.904 51.963,316.845 57.812,317.481 62.250 C 317.564 62.832,317.528 63.259,317.362 63.667 C 317.088 64.334,316.597 65.629,315.843 67.667 C 315.554 68.446,315.166 69.413,314.980 69.817 C 314.794 70.220,314.451 71.082,314.218 71.733 C 313.985 72.384,313.738 72.992,313.669 73.083 C 313.600 73.175,313.448 73.550,313.332 73.917 C 313.216 74.283,312.868 75.088,312.560 75.704 C 312.252 76.321,312.000 76.962,312.000 77.129 C 312.000 77.296,311.934 77.505,311.854 77.592 C 311.774 77.679,311.504 78.237,311.255 78.833 C 309.841 82.213,305.786 90.209,304.118 92.908 C 298.111 102.623,293.233 106.019,290.100 102.667 C 288.377 100.824,287.843 95.234,288.811 89.167 C 289.023 87.837,289.261 86.263,289.339 85.667 C 289.417 85.071,289.677 83.683,289.918 82.583 C 290.158 81.483,290.424 80.171,290.507 79.667 C 290.591 79.162,290.891 77.850,291.175 76.750 C 292.582 71.288,292.897 70.099,293.428 68.250 C 293.744 67.150,294.002 66.181,294.001 66.096 C 294.000 65.918,294.916 62.948,295.829 60.167 C 298.010 53.529,297.020 50.466,292.020 48.380 C 287.895 46.660,284.709 46.642,282.264 48.323 C 281.857 48.604,281.460 48.833,281.382 48.833 C 281.029 48.833,279.461 50.785,278.424 52.516 C 277.797 53.561,277.070 54.678,276.809 54.996 C 276.547 55.315,276.333 55.628,276.333 55.691 C 276.333 55.809,275.665 56.599,274.333 58.055 C 271.256 61.421,266.692 62.849,264.893 61.009 C 263.826 59.918,263.827 56.110,264.897 53.083 C 265.123 52.442,265.433 51.504,265.586 51.000 C 265.738 50.496,265.963 49.858,266.086 49.583 C 266.208 49.308,266.505 48.596,266.745 48.000 C 266.985 47.404,267.379 46.429,267.621 45.833 C 267.862 45.237,268.222 44.487,268.420 44.167 C 269.298 42.745,268.860 41.643,266.963 40.504 C 261.787 37.393,255.007 37.226,251.917 40.132 C 247.909 43.899,247.985 56.788,252.044 61.768 C 252.699 62.571,254.399 64.165,254.705 64.262 C 254.867 64.314,255.000 64.422,255.000 64.503 C 255.000 64.584,255.811 65.057,256.801 65.553 L 258.602 66.454 257.083 69.435 C 255.328 72.877,254.417 74.567,253.977 75.192 C 253.806 75.436,253.667 75.678,253.667 75.731 C 253.667 75.784,253.404 76.237,253.083 76.739 C 252.762 77.240,252.500 77.698,252.500 77.756 C 252.500 77.815,252.289 78.174,252.030 78.556 C 251.636 79.139,250.536 80.849,249.915 81.848 C 249.765 82.088,248.597 83.806,247.885 84.833 C 246.991 86.123,244.819 88.962,244.518 89.234 C 244.325 89.409,244.167 89.626,244.167 89.716 C 244.167 89.871,243.865 90.222,242.553 91.598 C 242.262 91.904,241.962 92.252,241.887 92.371 C 241.729 92.621,239.093 95.000,238.974 95.000 C 238.930 95.000,238.951 94.531,239.019 93.958 C 239.088 93.385,239.189 92.017,239.243 90.917 C 239.298 89.817,239.416 87.829,239.506 86.500 C 240.005 79.114,240.057 76.932,240.077 62.833 C 240.105 43.633,240.217 44.261,236.417 42.417 C 230.230 39.416,224.854 40.893,223.915 45.851 C 223.873 46.070,223.579 47.375,223.262 48.750 C 222.944 50.125,222.577 51.775,222.446 52.417 C 221.733 55.904,220.425 61.627,219.799 64.000 C 219.521 65.054,219.259 66.142,219.219 66.417 C 219.149 66.882,218.669 68.595,217.581 72.250 C 217.336 73.075,216.997 74.237,216.827 74.833 C 216.407 76.311,215.421 79.169,214.844 80.583 C 214.582 81.225,214.052 82.532,213.667 83.487 C 213.012 85.115,212.273 86.706,211.727 87.667 C 211.597 87.896,211.257 88.533,210.972 89.083 C 210.687 89.633,210.276 90.315,210.060 90.599 C 209.844 90.883,209.667 91.165,209.667 91.227 C 209.667 91.728,206.139 96.021,205.301 96.539 C 205.044 96.698,204.833 96.892,204.833 96.969 C 204.833 97.047,204.627 97.217,204.375 97.347 C 204.123 97.476,203.879 97.629,203.833 97.686 C 203.318 98.322,200.528 99.156,198.896 99.162 C 193.974 99.180,192.967 94.119,194.838 78.750 C 195.373 74.353,196.984 64.107,198.178 57.500 C 198.452 55.987,198.719 54.375,198.773 53.917 C 198.826 53.458,199.124 51.814,199.435 50.263 C 200.477 45.064,200.129 43.886,197.123 42.420 C 190.915 39.393,180.599 42.406,179.893 47.452 C 179.844 47.799,179.548 49.148,179.236 50.450 C 178.923 51.752,178.667 53.003,178.667 53.231 C 178.667 53.459,178.484 54.398,178.262 55.318 C 178.039 56.238,177.770 57.574,177.663 58.287 C 177.282 60.845,176.960 62.429,176.672 63.167 C 176.511 63.579,176.208 64.367,175.999 64.917 C 175.790 65.467,175.479 66.231,175.309 66.616 C 175.139 67.000,175.000 67.389,175.000 67.479 C 175.000 67.569,174.737 68.211,174.417 68.905 C 174.096 69.600,173.833 70.233,173.833 70.313 C 173.833 70.393,173.571 71.034,173.250 71.738 C 172.929 72.442,172.667 73.101,172.667 73.201 C 172.667 73.302,172.440 73.864,172.163 74.450 C 171.886 75.036,171.558 75.794,171.433 76.133 C 171.100 77.041,170.371 78.750,169.730 80.125 C 169.420 80.790,169.168 81.390,169.169 81.459 C 169.171 81.527,168.914 82.108,168.599 82.750 C 165.362 89.349,163.873 92.308,163.550 92.783 C 163.339 93.094,163.167 93.416,163.167 93.499 C 163.167 93.582,162.942 93.983,162.667 94.391 C 162.392 94.798,162.167 95.198,162.167 95.280 C 162.167 95.361,161.604 96.285,160.917 97.333 C 160.229 98.381,159.667 99.259,159.667 99.285 C 159.667 99.310,159.069 100.074,158.339 100.983 C 154.434 105.843,152.644 105.474,151.547 99.583 C 151.102 97.195,150.932 86.519,151.248 80.833 C 151.377 78.516,151.982 71.007,152.074 70.583 C 152.113 70.400,152.195 69.350,152.255 68.250 C 152.402 65.530,153.106 59.310,153.280 59.185 C 153.501 59.026,155.730 56.449,155.917 56.138 C 156.008 55.985,156.559 55.206,157.140 54.406 C 157.721 53.606,158.238 52.831,158.290 52.684 C 158.342 52.537,158.476 52.304,158.588 52.167 C 158.977 51.689,161.058 47.714,161.683 46.254 C 161.880 45.793,162.248 44.967,162.500 44.417 C 163.379 42.501,164.871 38.419,165.332 36.667 C 165.489 36.071,165.811 34.946,166.047 34.167 C 166.284 33.387,166.529 32.450,166.593 32.083 C 166.657 31.717,166.877 30.742,167.083 29.917 C 168.031 26.117,168.780 19.215,168.593 16.000 C 168.045 6.547,164.390 3.364,155.667 4.744 M163.615 11.667 C 164.503 13.409,164.637 19.061,163.905 23.917 C 163.670 25.475,163.397 27.313,163.298 28.000 C 163.198 28.688,162.895 30.150,162.623 31.250 C 162.351 32.350,162.076 33.550,162.011 33.917 C 161.519 36.697,157.784 46.495,156.674 47.917 C 156.603 48.008,156.299 48.528,156.000 49.072 C 155.701 49.616,155.316 50.212,155.145 50.395 C 154.973 50.579,154.833 50.794,154.833 50.872 C 154.833 50.950,154.637 51.218,154.397 51.466 L 153.961 51.917 154.049 51.417 C 154.097 51.142,154.296 49.117,154.491 46.917 C 154.686 44.717,155.077 41.004,155.361 38.667 C 155.644 36.329,155.910 33.929,155.951 33.333 C 155.992 32.737,156.240 30.975,156.503 29.417 C 156.767 27.858,157.027 26.208,157.082 25.750 C 157.233 24.504,157.486 23.257,157.932 21.558 C 158.153 20.719,158.333 19.882,158.333 19.697 C 158.333 19.512,158.588 18.586,158.899 17.639 C 159.210 16.692,159.507 15.726,159.560 15.493 C 159.778 14.528,161.066 12.101,161.692 11.475 C 162.585 10.582,163.087 10.632,163.615 11.667 M220.166 112.208 C 220.166 112.415,219.972 113.858,219.734 115.417 C 219.497 116.975,219.265 118.587,219.219 119.000 C 219.174 119.412,218.952 120.612,218.726 121.667 C 218.500 122.721,218.211 124.183,218.082 124.917 C 217.954 125.650,217.583 127.208,217.258 128.380 C 216.933 129.551,216.667 130.609,216.667 130.731 C 216.667 130.941,216.269 132.329,214.893 136.917 C 214.564 138.017,214.040 139.592,213.730 140.417 C 213.419 141.242,213.166 142.003,213.166 142.109 C 213.166 142.216,212.954 142.778,212.694 143.359 C 212.434 143.941,212.168 144.629,212.104 144.889 C 212.040 145.148,211.727 145.922,211.410 146.609 C 211.093 147.296,210.833 147.912,210.833 147.978 C 210.833 148.045,210.573 148.583,210.254 149.174 C 209.935 149.766,209.673 150.347,209.670 150.466 C 209.668 150.585,209.398 151.103,209.069 151.617 C 208.740 152.131,208.447 152.676,208.418 152.828 C 208.389 152.980,208.114 153.474,207.808 153.927 C 207.502 154.380,207.139 154.953,207.001 155.202 C 203.393 161.703,198.357 163.658,194.533 160.044 C 194.265 159.792,193.480 158.062,193.088 156.861 C 192.622 155.437,192.802 150.526,193.406 148.167 C 193.652 147.204,193.916 146.117,193.991 145.750 C 194.375 143.895,196.933 137.385,198.085 135.333 C 198.213 135.104,198.533 134.504,198.796 134.000 C 199.475 132.696,200.489 130.960,200.744 130.667 C 200.863 130.529,201.006 130.267,201.063 130.083 C 201.119 129.900,201.360 129.525,201.598 129.250 C 201.837 128.975,202.168 128.487,202.333 128.167 C 202.499 127.846,202.829 127.402,203.067 127.179 C 203.305 126.957,203.500 126.687,203.500 126.579 C 203.500 126.470,203.669 126.198,203.875 125.973 C 204.081 125.747,204.974 124.668,205.858 123.573 C 207.678 121.322,211.242 117.765,213.288 116.159 C 215.225 114.639,216.097 114.000,216.236 114.000 C 216.302 114.000,216.687 113.772,217.092 113.494 C 217.871 112.958,219.832 111.861,220.042 111.844 C 220.110 111.838,220.167 112.002,220.166 112.208 " stroke="none" fill="#f4f4f4" fill-rule="evenodd"></path><path id="path1" d="M75.333 10.005 C 75.104 10.080,74.354 10.304,73.667 10.502 C 68.852 11.891,64.841 15.434,62.781 20.119 C 61.538 22.945,61.588 22.014,61.540 43.208 C 61.517 53.635,61.437 62.167,61.364 62.167 C 61.290 62.167,60.856 61.848,60.398 61.458 C 59.941 61.069,59.121 60.456,58.575 60.096 C 58.030 59.736,57.273 59.231,56.893 58.973 C 56.514 58.716,56.011 58.433,55.777 58.343 C 55.542 58.254,55.065 58.004,54.716 57.787 C 53.921 57.293,50.313 55.833,49.885 55.833 C 49.710 55.833,49.495 55.774,49.408 55.701 C 49.321 55.628,48.987 55.485,48.667 55.383 C 44.718 54.130,37.227 53.882,32.750 54.858 C 31.717 55.083,28.259 56.121,27.583 56.409 C 27.308 56.526,26.825 56.726,26.510 56.853 C 24.905 57.498,21.360 59.465,20.596 60.133 C 20.406 60.299,19.950 60.629,19.583 60.866 C 14.230 64.323,8.641 72.801,7.134 79.750 C 6.955 80.575,6.721 81.587,6.613 82.000 C 6.350 83.010,6.346 92.132,6.608 93.167 C 6.712 93.579,6.917 94.479,7.064 95.167 C 7.362 96.564,7.819 98.163,7.994 98.417 C 8.057 98.508,8.196 98.889,8.302 99.263 C 9.637 103.941,14.733 110.718,19.682 114.394 C 20.377 114.910,21.027 115.333,21.126 115.333 C 21.225 115.333,21.331 115.402,21.361 115.485 C 21.433 115.681,23.885 117.091,25.500 117.864 C 26.588 118.386,28.062 118.953,30.167 119.661 C 30.717 119.846,32.683 120.284,34.917 120.719 C 36.191 120.967,43.098 120.966,44.333 120.717 C 48.477 119.883,49.189 119.711,50.083 119.331 C 50.267 119.252,50.904 119.024,51.500 118.823 C 52.096 118.621,53.076 118.204,53.677 117.895 C 54.279 117.586,54.816 117.333,54.870 117.333 C 54.977 117.333,57.471 115.843,58.497 115.167 C 61.132 113.429,64.493 110.128,66.934 106.883 C 67.717 105.840,70.167 101.492,70.167 101.143 C 70.167 101.070,70.353 100.613,70.580 100.130 C 71.034 99.163,71.833 96.739,71.833 96.327 C 71.833 96.184,71.897 95.995,71.974 95.908 C 72.174 95.684,72.635 93.208,72.832 91.298 C 72.938 90.275,73.001 78.017,73.002 57.965 C 73.004 24.421,72.972 25.903,73.722 24.167 C 74.032 23.449,74.817 22.697,75.917 22.063 L 76.750 21.583 94.833 21.500 C 114.525 21.409,113.152 21.484,114.765 20.414 C 118.137 18.176,118.095 12.505,114.693 10.785 C 114.449 10.662,114.081 10.473,113.875 10.364 C 113.669 10.255,113.351 10.092,113.169 10.000 C 112.764 9.796,75.956 9.801,75.333 10.005 M87.750 32.153 C 86.698 32.411,84.950 33.728,84.498 34.604 C 84.362 34.868,84.211 35.121,84.164 35.167 C 83.385 35.912,83.390 40.333,84.169 40.333 C 84.237 40.333,84.382 40.548,84.490 40.810 C 84.910 41.822,86.429 42.929,88.047 43.399 C 89.325 43.771,111.624 43.803,112.833 43.435 C 114.351 42.973,116.667 41.187,116.667 40.479 C 116.667 40.390,116.817 40.007,117.000 39.627 C 118.096 37.358,116.732 34.013,114.120 32.565 L 113.250 32.083 100.750 32.057 C 93.875 32.042,88.025 32.085,87.750 32.153 M88.250 54.162 C 88.067 54.238,87.549 54.431,87.099 54.591 C 84.991 55.339,83.355 57.926,83.539 60.221 C 83.615 61.169,83.758 61.571,84.560 63.098 C 84.977 63.890,86.383 64.978,87.456 65.337 C 88.485 65.681,112.544 65.862,112.925 65.528 C 113.012 65.452,113.395 65.301,113.776 65.193 C 115.618 64.669,117.333 62.081,117.333 59.824 C 117.333 59.132,117.268 58.495,117.189 58.408 C 117.109 58.321,116.912 57.896,116.751 57.463 C 116.236 56.080,114.680 54.792,112.853 54.237 C 111.978 53.972,88.876 53.900,88.250 54.162 M87.999 76.336 C 83.329 77.467,82.006 84.125,85.942 86.685 C 87.702 87.829,86.644 87.744,99.917 87.803 C 112.704 87.859,113.264 87.830,114.281 87.066 C 114.572 86.846,114.885 86.667,114.976 86.667 C 115.275 86.667,116.347 85.267,116.844 84.226 C 117.775 82.277,117.437 80.163,115.882 78.215 C 115.325 77.517,115.105 77.360,113.667 76.630 L 112.917 76.250 100.750 76.222 C 94.058 76.207,88.320 76.259,87.999 76.336 M151.039 89.333 C 151.039 89.654,151.073 89.785,151.115 89.625 C 151.157 89.465,151.157 89.202,151.115 89.042 C 151.073 88.881,151.039 89.013,151.039 89.333 M151.039 91.333 C 151.039 91.654,151.073 91.785,151.115 91.625 C 151.157 91.465,151.157 91.202,151.115 91.042 C 151.073 90.881,151.039 91.013,151.039 91.333 " stroke="none" fill="#6464f4" fill-rule="evenodd"></path><path id="path2" d="" stroke="none" fill="#d0f8f4" fill-rule="evenodd"></path><path id="path3" d="" stroke="none" fill="#d0f8f4" fill-rule="evenodd"></path><path id="path4" d="" stroke="none" fill="#d0f8f4" fill-rule="evenodd"></path></g></svg>