<svg width="750" height="750" viewBox="0 0 750 750" fill="none" xmlns="http://www.w3.org/2000/svg">
<path fill-rule="evenodd" clip-rule="evenodd" d="M426.089 621.784C498.518 621.784 562.079 567.907 526.383 494.729C490.687 421.551 623.32 423.914 662.28 373.338C709.794 311.659 696.034 49.8385 391.013 209.457C342.153 235.026 216.668 183.152 175.044 208.891C126.048 239.188 57.1145 301.227 126.048 364.776C160.004 396.079 38.2655 477.328 91.5845 550.106C143.61 621.119 180.08 553.423 259.288 567.907C338.497 582.392 372.297 621.784 426.089 621.784Z" fill="#A5B4FC"/>
<path d="M342.022 494.475C342.022 494.475 358.699 486.63 364.925 481.173C371.151 475.715 378.891 462.155 378.891 462.155C378.891 462.155 463.914 523.559 519.352 514.8C532.126 512.782 557.014 504.291 558.601 489.332C562.936 448.483 502.971 438.044 516.07 417.329C524.065 404.685 548.902 423.504 548.902 423.504L651.92 474.176C651.92 474.176 616.33 561.905 529.962 565.421C423.718 569.746 342.022 494.475 342.022 494.475Z" fill="white"/>
<path fill-rule="evenodd" clip-rule="evenodd" d="M260.345 150.905C259.378 150.526 254.186 144.167 247.593 143.01C244.598 142.484 247.317 146.299 244.02 146.333C234.201 146.435 218.244 144.591 215.288 146.333C213.091 147.624 217.929 152.134 215.288 152.341C190.366 154.294 152.347 179.178 144.098 191.25C141.473 195.092 162.704 188.573 159.321 190.473C155.525 192.605 151.314 206.563 148.796 217.344C147.053 224.768 145.956 234.322 145.568 244.715C145.246 253.688 145.375 255.173 146.666 260.079C148.151 265.566 149.313 267.18 151.314 266.406C152.024 266.147 152.347 265.179 152.347 263.372C152.347 261.951 153.121 257.691 154.09 253.882L155.768 247.039L156.478 249.88C157.382 253.172 162.675 263.372 167.453 270.795C167.71 271.189 168.819 270.688 169.818 268.272C170.729 266.07 170.359 262.553 171.907 258.784C175.432 250.197 182.352 239.032 190.366 230.096C202.21 216.888 206.14 201.603 217.242 189.333C237.961 166.435 263.965 152.326 260.345 150.905Z" fill="white"/>
<path fill-rule="evenodd" clip-rule="evenodd" d="M159.616 193.588C156.292 196.261 151.359 217.939 151.274 218.302C149.531 225.725 147.851 251.506 149.568 256.387C151.286 261.268 156.095 243.673 156.095 243.673C156.095 243.673 163.363 262.547 169.786 267.722C170.06 267.943 162.152 244.371 159.616 230.609C156.268 212.444 161.507 192.067 159.616 193.588Z" fill="#E7EAEE"/>
<path fill-rule="evenodd" clip-rule="evenodd" d="M283.496 573.251C289.693 571.896 300.15 567.175 304.154 565.561C308.157 563.946 320.357 546.719 324.747 527.288C327.91 512.957 329.524 492.558 327.716 489.136C327.449 488.651 326.473 479.374 329.072 482.403C334.85 489.136 341.709 499.706 363.35 480.766C369.245 475.607 377.057 468.949 375 463.064C369.245 446.596 344.295 413.435 340.492 410.924C335.944 407.92 312.959 410.472 278.752 400.376C239.958 388.926 223.805 355.209 208.624 359.598C196.347 363.148 166.932 384.96 159.55 398.773C124.698 463.984 166.932 509.679 176.55 522.803L185.889 526.836L186.212 535.164L186.663 540.393C187.503 550.399 187.825 551.303 192.344 554.66C203.641 563.245 225.913 571.25 246.054 574.091C255.415 575.382 275.749 574.93 283.496 573.251Z" fill="white"/>
<path fill-rule="evenodd" clip-rule="evenodd" d="M189.562 532.116L190.013 537.344C190.853 547.351 191.175 548.254 195.694 551.611C202.359 556.676 212.843 561.539 224.455 565.259C232.527 567.844 241.145 569.877 249.404 571.042C258.765 572.333 279.1 571.881 286.846 570.203C290.675 569.373 259.179 544.629 240.624 551.611C226.375 556.973 192.791 516.074 206.446 505.389C221.764 493.402 193.695 446.126 192.791 435.862C191.887 425.598 188.328 423.146 188.224 423.506C188.12 423.866 188.12 425.094 188.4 428.053C189.604 440.806 189.562 532.116 189.562 532.116Z" fill="#E7EAEE"/>
<path fill-rule="evenodd" clip-rule="evenodd" d="M186.199 432.932C187.554 432.668 188.866 433.553 189.13 434.908C194.002 459.939 214.611 476.885 251.463 485.746C288.533 494.66 313.784 494.179 327.088 484.665C328.211 483.861 327.374 490.74 326.551 491.267C317.874 496.832 288.371 505.135 253.163 497.63C208.146 488.035 187.01 450.183 184.222 435.864C183.959 434.508 184.843 433.196 186.199 432.932Z" fill="#6366F1"/>
<path fill-rule="evenodd" clip-rule="evenodd" d="M167.426 387.771C168.625 387.085 213.336 438.328 274.696 449.927C336.056 461.526 350.912 454.149 353.3 438.328C353.506 436.963 354.78 436.023 356.145 436.229C357.51 436.435 358.45 437.709 358.244 439.074C355.217 459.126 326.825 463.895 273.855 454.856C221.55 445.931 185.69 424.724 166.498 391.182C165.812 389.984 166.228 388.456 167.426 387.771Z" fill="#6366F1"/>
<path fill-rule="evenodd" clip-rule="evenodd" d="M424.963 384.929C423.284 384.348 421.477 383.057 420.315 381.572L418.378 379.183L425.221 372.405C435.744 362.076 443.813 351.489 450.785 338.901C453.109 334.705 458.983 320.697 458.983 319.341C458.983 318.889 459.694 317.081 460.533 315.209C461.824 312.498 462.792 311.465 465.568 309.916C468.86 307.979 472.605 307.334 474.218 308.431C477.317 310.497 477.317 317.017 474.218 328.249C470.797 340.579 466.214 349.424 456.724 362.141C455.239 364.078 452.463 367.886 450.462 370.533C445.104 377.634 441.618 381.056 436.906 383.702C432.258 386.285 429.546 386.607 424.963 384.929ZM471.313 379.119L475.961 381.185C476.925 381.63 487.558 386.738 500.329 392.875C520.92 402.769 547.071 415.334 547.23 415.334C547.489 415.334 548.7 412.533 548.973 409.266C549.619 402.23 552.007 392.675 554.783 386.026C556.074 383.057 557.107 379.345 557.107 379.023C557.107 378.875 556.058 378.452 554.34 377.759C552.294 376.934 549.302 375.727 546.004 374.148C529.736 366.337 497.91 350.392 493.972 348.003C490.099 345.744 489.324 345.55 489.324 347.035C489.324 348.972 485.386 357.945 482.352 362.786C480.739 365.433 477.575 370.21 475.316 373.374L471.313 379.119ZM546.133 403.714C547.984 404.787 544.777 406.361 544.003 406.619C539.441 407.007 534.071 406.149 529.671 403.585C527.371 401.954 509.256 391.89 497.24 385.215C491.747 382.163 487.528 379.819 486.678 379.313C483.966 377.699 481.384 375.956 480.932 375.439C479.577 373.696 480.868 372.922 484.676 373.244C486.966 373.438 542.134 401.397 546.133 403.714ZM283.716 572.72C288.696 571.63 296.426 568.368 301.348 566.291C302.552 565.783 303.587 565.346 304.374 565.029C308.378 563.414 320.577 546.188 324.967 526.756C328.13 512.425 329.744 492.026 327.937 488.604C326.847 486.623 333.321 493.27 338.143 498.221C339.605 499.721 340.915 501.066 341.816 501.967C369.962 529.92 411.858 552.385 455.368 562.907C477.059 568.201 492.488 570.073 513.21 570.073C548.005 570.073 575.441 563.23 600.359 548.189C601.543 547.474 602.652 546.818 603.709 546.192C612.395 541.049 617.57 537.986 631.733 522.044C647.619 504.162 661.751 462.653 666.464 448.322C668.529 441.866 673.565 416.19 673.565 409.783C673.565 402.197 670.918 398.615 667.303 394.935C660.912 388.673 652.261 386.414 645.096 389.125L641.739 390.416L640.706 386.995C639.221 381.83 636.123 377.699 631.346 374.6C624.245 369.888 623.212 369.565 616.821 369.565C611.85 369.565 610.494 369.823 607.331 371.308L603.651 372.986L602.877 370.662C601.392 365.885 596.412 359.226 592.548 357.299C589.121 355.591 583.189 355.434 579.056 356.202C570.018 357.88 563.563 362.076 560.916 367.951C560.141 369.758 559.173 371.179 558.786 371.179C558.463 371.179 545.746 367.627 530.575 360.913C528.016 359.777 525.612 358.711 523.355 357.711C496.113 345.636 490.208 343.019 490.745 339.74C491.196 336.964 491.067 335.415 490.293 333.027C488.937 329.024 487.388 327.927 482.998 327.927C479.512 327.927 479.512 327.927 479.899 326.184C481.965 316.307 481.901 310.626 479.706 307.011C478.221 304.622 476.478 303.654 472.475 303.073C470.151 302.75 469.054 302.944 466.472 304.364C464.729 305.268 463.244 305.913 463.115 305.784C462.986 305.655 463.438 302.105 464.148 297.909C469.441 266.858 465.352 240.104 451.86 211.7C451.731 211.428 451.581 211.107 451.41 210.739C447.308 201.933 430.815 166.524 383.648 148.657C381.513 147.848 379.493 147.067 377.551 146.315L377.551 146.315C361.484 140.096 350.803 135.961 325.032 136.004C296.146 136.052 286.363 140.136 267.319 148.851C264.673 150.077 262.349 150.787 262.155 150.529C261.961 150.206 260.735 149.432 259.508 148.786C258.282 148.141 255.635 146.527 253.698 145.236C248.146 141.491 244.725 139.942 242.982 140.329C240.981 140.846 240.981 142.524 242.982 143.299C243.821 143.622 244.79 144.719 245.177 145.817C246.016 148.141 246.984 148.399 247.565 146.462C247.824 145.752 248.211 145.236 248.405 145.365C248.478 145.402 248.724 145.517 249.099 145.692L249.099 145.692C250.043 146.134 251.804 146.959 253.698 147.882C256.345 149.174 259.25 150.529 260.025 150.852C261.445 151.368 260.993 151.756 254.86 155.371C230.91 169.444 211.415 191.328 200.505 216.246C198.826 219.991 197.342 222.314 195.792 223.606C191.854 226.898 184.108 236.258 182.3 239.938C181.332 241.939 179.266 245.038 177.652 246.845C176.103 248.653 174.424 250.977 173.843 251.945C173.327 252.978 172.811 253.688 172.617 253.559C172.488 253.366 172.681 250.202 173.133 246.523C174.102 237.937 174.102 235.677 173.327 235.484C172.165 235.161 170.487 239.68 169.776 245.296C169.26 248.718 169.131 253.882 169.454 259.175L169.841 267.568L165.258 260.144C163.682 257.662 162.13 255.179 161.027 253.416L161.027 253.415L161.026 253.415L161.026 253.414L161.024 253.41L161.022 253.409L161.022 253.408L161.022 253.407L161.021 253.406L161.019 253.403C160.32 252.284 159.802 251.457 159.577 251.106C157.898 248.653 156.93 244.973 157.64 243.747C158.027 243.037 157.963 242.714 157.317 242.714C155.962 242.714 153.315 247.039 151.572 252.01C150.733 254.334 149.893 256.27 149.635 256.27C148.667 256.27 149.119 233.16 150.152 225.736C152.282 211.082 157.898 193.006 160.416 193.006C160.932 193.006 161.384 192.748 161.384 192.361C161.384 191.199 159.706 191.651 158.35 193.136C155.316 196.428 151.314 206.563 148.796 217.344C147.053 224.768 145.956 234.322 145.568 244.715C145.246 253.688 145.375 255.173 146.666 260.079C148.151 265.566 149.313 267.18 151.314 266.406C152.024 266.147 152.347 265.179 152.347 263.372C152.347 261.951 153.121 257.691 154.09 253.882L155.768 247.039L156.478 249.88C157.382 253.172 162.675 263.372 167.452 270.795C170.745 275.831 170.809 276.153 171.907 284.029C172.488 288.484 174.295 299.318 178.491 315.984C182.199 330.71 203.041 345.317 208.246 348.965L208.246 348.965L208.249 348.967C208.933 349.446 209.346 349.736 209.413 349.811C210.059 350.521 210.963 350.908 211.479 350.715C212.06 350.521 212.383 350.779 212.383 351.489C212.383 352.135 212.835 352.974 213.351 353.361C213.997 353.813 214.449 355.556 214.578 358.59C214.901 364.659 219.419 376.278 222.905 380.087C225.165 382.54 229.877 383.573 235.106 382.669C238.528 382.153 239.496 381.766 239.173 380.991C238.98 380.475 240.206 381.12 241.885 382.411C261.509 397.388 281.392 406.361 303.728 410.234C312.379 411.719 326.71 412.558 334.521 411.977C341.429 411.526 341.429 411.526 341.106 412.881C340.654 414.689 341.235 415.786 350.724 431.86C358.277 444.578 358.923 445.417 367.315 454.003C385.132 472.401 404.563 486.668 426.577 497.707C447.299 508.035 480.383 516.621 510.628 519.333C540.872 522.044 562.594 494.285 562.53 487.184C562.401 477.436 561.045 471.045 557.753 464.848C554.525 458.844 552.395 456.779 542.711 450.323C531.931 443.158 525.282 437.283 520.892 431.021C518.116 427.083 517.083 422.629 517.083 420.241C517.083 418.691 519.084 415.205 522.054 414.495C524.765 413.785 525.282 413.85 528.316 415.334C530.123 416.174 534.836 418.368 538.709 420.241C542.647 422.048 546.456 423.856 547.23 424.243C549.514 424.877 550.48 429.348 551.003 431.771C551.12 432.312 551.215 432.751 551.297 433.022C552.201 436.379 556.478 440.714 559.238 442.189C564.083 444.781 576.023 445.127 579.315 441.577C580.155 440.673 582.937 439.562 583.51 439.898C584.084 440.235 586.157 443.028 586.157 445.288C586.222 449.161 588.223 452.712 592.483 456.262C600.553 462.976 606.815 464.59 613.141 461.62C616.433 460.071 619.132 459.466 619.132 459.466C619.132 459.466 621.823 462.9 621.985 464.073C623.253 473.246 636.832 477.091 640.448 477.478C641.276 477.561 642.889 477.206 644.526 476.846C646.716 476.365 648.951 475.874 649.421 476.403C650.343 477.444 633.992 504.485 631.733 507.906C610.236 540.184 568.404 559.938 517.212 562.004C483.966 563.359 443.103 554.063 407.662 537.15C385.003 526.24 364.927 512.877 343.43 494.156C339.686 490.928 335.36 487.249 333.811 485.958C332.262 484.731 328.582 480.535 325.742 476.662C320.965 470.206 318.253 467.882 318.253 470.077C318.253 471.045 321.352 476.984 324.902 482.859C326.323 485.183 327.226 486.797 326.904 486.539C326.581 486.28 325.548 490.928 324.58 496.867C321.416 515.911 316.187 534.697 310.894 546.381C307.989 552.708 302.419 557.432 300.74 558.723C294.543 563.436 285.266 565.554 272.419 566.845C256.151 568.459 232.201 564.844 213.932 558.001C209.091 556.194 196.631 550.965 195.792 550.384C195.742 550.333 195.456 548.476 195.057 545.884C194.944 545.153 194.823 544.364 194.695 543.541C192.371 527.596 189.143 466.204 189.143 437.799C189.143 426.05 189.014 423.468 188.239 423.468C186.625 423.468 185.98 425.018 185.27 430.569C183.656 443.222 183.979 509.262 185.722 523.141L186.109 526.305L183.914 525.078C180.557 523.141 167.775 510.166 163.321 504.162C159.55 499.03 157.309 492.456 155.632 487.538C155.242 486.394 154.883 485.34 154.541 484.414C145.181 458.463 148.473 429.343 161.384 403.133C172.359 380.797 185.851 368.403 205.605 362.399C208.832 361.431 211.673 360.398 211.996 360.14C213.222 358.978 205.346 359.559 201.021 360.914C186.948 365.24 172.23 377.053 162.224 392.159C148.151 413.333 141.824 444.578 146.278 471.239C147.311 477.565 151.507 491.251 152.669 492.219C152.772 492.322 153.303 493.436 154.106 495.121C156.327 499.779 160.627 508.8 163.708 512.877C167.452 517.977 178.75 529.08 183.462 532.502L186.432 534.632L186.884 539.861C187.723 549.867 188.046 550.771 192.564 554.128C203.862 562.714 226.133 570.719 246.274 573.559C255.635 574.85 275.97 574.398 283.716 572.72ZM501.913 512.102C464.406 508.81 419.088 490.927 386.294 463.298C372.48 451.613 354.533 428.891 347.432 416.303C345.947 413.72 344.85 412.494 343.559 412.171C342.203 411.784 343.365 411.396 348.917 410.493C372.35 406.49 395.138 396.742 413.537 382.863L416.248 380.862L417.023 382.734C418.766 386.93 425.479 391.191 430.45 391.191C432.451 391.191 439.165 388.157 443.232 385.381L446.008 383.509L448.267 385.768C450.333 387.834 450.72 387.963 454.594 387.963C459.048 387.963 464.406 385.962 467.376 383.121L468.989 381.637L473.573 384.671C476.026 386.414 482.869 390.222 488.743 393.256C497.523 397.775 506.819 403.004 515.663 408.427L517.083 409.331L515.727 411.138C514.307 413.075 511.662 416.755 511.662 422.371C511.662 428.697 518.24 440.064 530.833 447.87C540.727 454.003 557.753 466.066 557.107 483.698C557.029 485.828 554.654 491.122 551.491 495.899C549.425 498.933 543.68 503.452 538.451 506.099C529.542 510.553 513.855 513.135 501.913 512.102ZM157.705 222.315C159.448 222.702 160.61 223.283 160.351 223.541C159.512 224.38 155.058 223.993 154.025 222.96C152.411 221.411 152.798 220.313 155.058 219.861C156.22 219.668 157.963 218.699 158.931 217.731C159.9 216.763 160.739 216.311 160.739 216.634C160.739 217.473 157.511 220.442 155.897 221.088C154.864 221.54 155.187 221.734 157.705 222.315ZM183.398 223.347C185.27 222.314 184.882 221.604 182.687 221.927C180.493 222.25 180.364 221.992 181.784 219.797C182.365 218.958 182.687 217.731 182.558 217.086C182.365 216.246 181.913 216.634 180.88 218.699C180.105 220.184 179.008 221.411 178.491 221.411C176.878 221.411 176.748 222.702 178.298 223.283C180.299 224.122 181.848 224.122 183.398 223.347ZM161.062 188.1C159.512 188.359 154.671 190.295 150.41 192.425C146.085 194.491 142.405 196.234 142.147 196.17C135.562 195.46 144.729 184.485 161.384 173.253C177.329 162.472 188.11 156.791 198.116 153.886C204.378 152.079 211.415 151.82 213.416 153.305C214.513 154.144 214.126 154.209 209.349 154.273C199.02 154.273 187.077 159.567 167.646 172.542C157.576 179.256 145.891 188.875 145.891 190.424C145.891 190.747 147.763 190.101 150.087 189.069C155.058 186.809 160.158 185.647 162.417 186.164C164.806 186.809 164.289 187.648 161.062 188.1ZM186.044 193.652C192.113 192.425 192.371 192.361 192.371 191.715C192.371 191.393 190.047 191.07 187.142 190.941L181.913 190.747L186.754 185.26C189.401 182.226 192.5 179.192 193.597 178.482C195.986 176.932 196.115 175.835 194.178 175.189L192.694 174.737L194.307 174.156C195.211 173.834 196.89 173.704 198.052 173.898C199.795 174.156 200.182 174.027 199.988 173.123C199.795 172.22 199.085 172.026 195.921 172.091C186.69 172.22 182.752 174.673 189.982 175.835C191.983 176.158 193.662 176.674 193.662 176.997C193.662 177.255 193.339 177.513 192.952 177.513C191.725 177.513 181.332 188.036 180.041 190.618C178.04 194.427 179.137 195.008 186.044 193.652ZM228.651 168.605C226.779 168.734 226.327 169.057 226.456 169.96L226.476 170.092C226.548 170.569 226.59 170.844 226.483 170.927C226.338 171.039 225.923 170.804 224.947 170.25L224.777 170.154C223.551 169.508 223.422 169.186 224.132 168.669C224.584 168.282 225.81 167.701 226.779 167.507L228.586 167.055L227.231 165.635C226.52 164.796 226.133 164.021 226.327 163.763C226.843 163.247 233.17 163.957 234.073 164.667C234.461 164.99 235.042 164.925 235.429 164.538C236.333 163.634 237.559 164.344 237.559 165.764C237.559 166.539 237.366 166.603 236.785 166.022C236.268 165.506 235.816 165.506 235.235 165.958C234.719 166.41 234.332 166.41 234.009 165.893C233.815 165.571 232.589 165.248 231.298 165.248C230.106 165.248 229.543 165.248 229.428 165.475C229.325 165.678 229.583 166.065 230.071 166.797C231.101 168.406 231.04 168.411 228.673 168.603L228.651 168.605ZM218.838 151.433C218.838 150.594 218.064 149.109 217.095 148.141L215.288 146.333L224.971 146.72C230.329 146.979 236.397 147.56 238.528 148.141C240.658 148.657 243.111 149.044 244.015 149.044C245.371 149.044 245.112 148.786 242.595 147.431C238.205 145.171 232.589 144.074 221.808 143.299C208.897 142.395 202.377 143.622 203.603 146.85C203.797 147.495 204.83 147.818 206.379 147.818C209.542 147.818 214.707 149.69 216.45 151.433C218.322 153.305 218.838 153.305 218.838 151.433ZM187.335 322.375C192.564 329.089 199.472 336.706 202.7 339.288C204.636 340.838 206.315 342.129 206.444 342.129C206.508 342.129 205.088 339.159 203.281 335.544C195.986 321.019 191.725 306.559 189.724 289.904C189.272 286.224 188.562 283.125 187.787 281.834C186.238 279.252 186.238 275.895 187.852 272.732C188.691 271.054 189.143 268.923 189.143 266.599V263.049L186.044 266.277C183.01 269.44 180.105 270.731 180.105 268.794C180.105 267.374 184.882 260.531 187.4 258.401C189.401 256.722 189.659 256.141 190.305 251.106C190.757 248.072 191.79 242.714 192.629 239.163C193.533 235.613 194.049 232.579 193.92 232.45C193.468 231.998 178.298 249.421 176.232 254.979C175.778 256.2 174.554 258.336 173.585 259.627L171.907 261.782C171.907 261.782 172.428 264.8 173.004 268.593C173.586 272.424 173.859 275.058 174.103 277.404C174.428 280.543 174.7 283.166 175.586 287.451C176.619 292.744 177.652 297.328 177.91 297.65C178.104 298.038 178.943 301.007 179.783 304.299C181.59 311.594 184.624 318.824 187.335 322.375ZM449.3 383.444L447.945 382.088C447.945 382.088 470.445 353.501 474.477 342.968C477.553 334.93 479.364 332.65 481.807 332.65C483.174 332.65 484.289 332.962 484.805 333.737C485.709 335.092 486.58 336.771 485.418 342.516C483.482 351.812 480.512 357.945 471.603 371.179C469.538 374.213 466.891 377.57 465.729 378.732C463.018 381.249 456.918 383.831 453.367 384.412C451.108 384.735 450.462 384.606 449.3 383.444Z" fill="#00160A"/>
<path d="M628.053 446.596C636.085 424.713 634.869 420.051 633.476 419.595C633.476 419.595 630.409 421.338 629.053 425.018C626.536 431.925 617.918 450 614.69 453.228C610.882 457.037 610.882 457.037 607.008 457.037C603.135 457.037 591.964 451.204 590.443 445.454C588.01 436.255 598.487 404.295 598.745 402.488L597.002 401.261C595.84 402.359 580.726 448.193 560.851 436.25C558.576 434.883 553.75 428.439 553.363 425.018C551.212 415.076 561.082 380.313 562.76 373.173C564.263 366.782 572.084 360.85 581.703 360.85C596.486 360.85 594.5 373.772 601.122 378.326C604.056 380.344 608.878 376.685 610.365 376.408C618.693 374.858 621.884 376.662 627.989 381.507C632.701 385.247 636.188 392.65 640.026 395.258C642.158 396.706 644.42 394.726 645.16 394.354C648.198 392.829 654.715 393.967 656.522 395.258C659.172 396.413 665.665 402.655 666.691 406.285C671.341 422.739 656.659 459.217 651.117 466.06C641.942 477.387 620.022 468.478 628.053 446.596Z" fill="white"/>
<path fill-rule="evenodd" clip-rule="evenodd" d="M256.926 386.637C274.614 397.805 292.853 405.099 313.639 407.101C330.036 408.65 352.145 406.52 368.025 401.355C381.388 397.03 399.464 385.048 411.535 374.913C434.969 355.288 449.752 324.634 456.208 292.099C457.111 287.515 458.49 275.994 458.425 264.568C458.425 251.269 452.573 214.929 434.84 193.975C398.266 150.758 338.146 131.289 287.62 147.924C269.394 153.924 249.988 164.796 235.334 178.998C216.871 197.009 203.25 221.54 197.827 246.587C192.147 273.055 199.536 304.687 212.383 330.638C222.647 351.296 239.561 375.598 256.926 386.637ZM429.288 308.625C417.152 345.098 385.52 372.341 345.754 380.604C339.686 381.83 335.489 382.282 326.968 382.411C320.965 382.605 314.961 382.54 313.734 382.411C285.911 379.054 264.737 368.79 245.241 349.294C236.72 340.709 233.105 336.061 227.812 326.894C219.484 312.369 215.03 297.521 213.674 279.639C209.026 218.377 252.859 167.314 314.574 162.02C338.782 159.954 365.637 167.378 386.036 181.838C393.589 187.197 407.275 200.753 411.535 207.079C413.278 209.597 430.192 234.322 433.161 248.524C436.97 266.987 435.485 290.097 429.288 308.625Z" fill="white"/>
<path fill-rule="evenodd" clip-rule="evenodd" d="M458.448 264.568C458.448 307.898 437.952 355.269 411.5 375.5C398.88 385.152 382.387 396.84 368.025 401.355C346.978 407.972 313.639 407.101 313.639 407.101C313.639 407.101 347.651 402.554 360.255 397.481C396.399 382.936 416.129 360.608 428.312 339.184C452.361 296.895 458.448 263.515 458.448 264.568Z" fill="#E7EAEE"/>
<path fill-rule="evenodd" clip-rule="evenodd" d="M314.38 374.665C297.144 372.47 280.037 366.337 266.222 357.235C258.023 351.877 245.629 339.288 239.625 330.315C231.039 317.404 225.358 303.589 222.583 288.742C220.581 277.961 220.646 261.37 222.647 251.752C224.713 241.939 227.36 234.451 232.072 224.961C237.559 213.987 243.369 205.917 252.084 197.203C266.932 182.355 284.168 172.93 304.697 168.411C311.346 166.991 335.425 165.829 336.264 166.926C336.458 167.249 337.749 168.088 339.105 168.798C340.46 169.573 344.075 172.284 347.045 174.931C351.499 178.804 353.5 181.257 357.374 187.326C360.02 191.457 362.151 195.201 362.151 195.524C362.151 196.234 364.217 197.525 365.379 197.525C366.992 197.525 368.09 192.684 368.413 184.162C368.606 179.45 368.994 175.577 369.252 175.577C370.156 175.577 380.097 181.064 384.745 184.162C393.847 190.231 402.95 198.752 409.663 207.66C412.697 211.663 413.149 212.696 413.149 215.149C413.149 217.408 413.795 219.151 415.796 222.637C420.831 231.417 424.769 242.456 427.158 254.657C428.707 262.855 428.707 278.348 427.093 286.934C422.703 310.561 409.663 334.059 392.685 348.972C378.29 361.56 362.99 369.307 344.915 373.115C338.717 374.471 320.125 375.375 314.38 374.665ZM268.223 330.509C268.804 329.863 269.191 328.895 268.998 328.443C268.94 328.307 268.131 327.927 266.948 327.371C264.19 326.075 259.395 323.82 257.317 321.471C249.054 312.046 246.02 305.01 244.148 290.485C242.34 276.347 243.859 266.79 247.117 251.429C248.707 243.936 252.932 237.746 255.56 233.895C257.348 231.277 258.397 229.74 257.378 229.609C254.86 229.222 254.473 229.416 251.826 231.933C246.145 237.356 243.563 241.681 240.852 250.009C236.656 263.049 235.845 298.29 244.148 314.176C252.45 330.063 266.738 332.187 268.223 330.509ZM360.02 276.283C358.924 286.311 354.275 300.814 348.852 307.14C346.335 310.109 337.093 315.209 329.292 314.176C321.757 313.179 315.865 309.658 310.829 302.105C306.504 295.585 304.27 287.67 302.76 277.703C300.152 260.491 311.54 240.454 316.446 235.484C321.416 230.384 324.967 228.576 329.486 228.512C333.876 228.512 336.716 229.48 341.17 232.643C349.304 238.324 362.151 256.795 360.02 276.283ZM273 222.895C274.291 221.411 274.485 220.701 274.098 217.925C273.839 215.343 273.323 214.31 271.967 213.212C269.579 211.276 266.609 211.276 264.414 213.341C262.865 214.826 262.671 215.343 262.865 218.893C263.059 222.702 263.188 222.96 265.318 224.122C268.158 225.671 270.934 225.219 273 222.895ZM313.283 183.065C301.663 191.393 296.627 194.814 291.398 198.042C287.267 200.624 285.976 200.689 285.976 198.365C285.976 197.138 286.879 195.782 289.203 193.652L292.431 190.682L286.169 189.843C279.133 188.94 272.29 187.003 270.805 185.518C268.352 183 270.482 182.419 277.454 183.711C280.553 184.227 286.557 184.873 290.817 185.002L298.564 185.324L304.18 181.257C316.51 172.349 329.292 167.314 335.425 168.863C339.234 169.767 338.782 170.8 334.457 171.316C329.486 171.897 326.452 173.575 313.283 183.065Z" fill="white"/>
<path d="M329.873 305.332C329.873 305.01 330.261 304.687 330.777 304.687C331.293 304.687 331.939 305.01 332.133 305.332C332.326 305.72 331.939 305.978 331.229 305.978C330.454 305.978 329.873 305.72 329.873 305.332Z" fill="white"/>
<path d="M333.746 304.751C333.746 304.041 335.36 303.396 337.168 303.396C338.588 303.46 338.588 303.46 337.362 304.364C335.941 305.462 333.746 305.655 333.746 304.751Z" fill="white"/>
<path d="M323.74 303.073C323.547 302.557 323.289 301.653 323.095 301.136C322.901 300.491 323.224 300.168 324.063 300.168C324.773 300.168 325.354 300.555 325.354 301.072C325.354 301.588 325.548 302.427 325.742 303.008C326 303.719 325.806 304.041 325.096 304.041C324.515 304.041 323.87 303.589 323.74 303.073Z" fill="white"/>
<path d="M327.162 301.459C326.839 299.522 327.549 298.877 329.873 298.877C330.583 298.877 331.164 299.522 331.423 300.62C331.939 302.492 331.1 303.396 328.84 303.396C327.807 303.396 327.356 302.944 327.162 301.459Z" fill="white"/>
<path d="M320.577 301.782C319.351 300.814 319.351 300.814 320.706 300.814C321.546 300.814 322.127 301.201 322.127 301.782C322.127 302.944 322.127 302.944 320.577 301.782Z" fill="white"/>
<path d="M333.553 301.717C332.714 300.878 333.101 298.36 334.134 297.973C336.006 297.263 336.845 297.586 337.232 299.264C337.491 300.233 337.62 301.072 337.491 301.136C336.974 301.717 333.94 302.105 333.553 301.717Z" fill="white"/>
<path d="M339.298 300.362C339.105 300.168 338.911 299.329 338.911 298.554C338.911 297.457 339.427 297.005 340.977 296.682C342.332 296.424 343.172 296.553 343.559 297.069C344.204 298.102 344.204 299.393 343.623 299.716C342.461 300.362 339.75 300.749 339.298 300.362Z" fill="white"/>
<path d="M317.608 298.36C317.608 297.586 318.189 296.94 319.028 296.747C320.706 296.295 320.642 296.23 320.965 297.909C321.094 298.877 320.771 299.264 319.415 299.393C317.995 299.587 317.608 299.329 317.608 298.36Z" fill="white"/>
<path d="M322.514 298.425C321.61 297.457 322.191 295.649 323.418 295.649C324.257 295.649 324.709 296.101 324.709 296.876C324.709 298.102 323.224 299.135 322.514 298.425Z" fill="white"/>
<path d="M326.387 296.488C325.871 295.262 326.968 294.358 329.099 294.358C330.067 294.358 330.519 294.745 330.519 295.585C330.519 296.295 329.938 296.94 329.099 297.198C326.968 297.715 326.839 297.715 326.387 296.488Z" fill="white"/>
<path d="M345.044 296.295C345.237 295.972 345.56 295.649 345.754 295.649C345.947 295.649 345.883 295.972 345.689 296.295C345.496 296.682 345.173 296.94 344.979 296.94C344.785 296.94 344.85 296.682 345.044 296.295Z" fill="white"/>
<path d="M332.197 295.197C331.681 293.906 332.326 293.261 334.392 292.938C335.554 292.809 336.07 293.067 336.2 293.971C336.651 296.101 332.972 297.263 332.197 295.197Z" fill="white"/>
<path d="M316.704 294.1C316.123 291.969 316.252 291.776 317.93 291.776C318.834 291.776 319.544 292.034 319.544 292.357C319.544 292.68 319.738 293.39 319.932 293.906C320.125 294.552 319.738 294.939 318.641 295.133C317.414 295.391 316.962 295.133 316.704 294.1Z" fill="white"/>
<path d="M338.265 293.39C338.265 292.228 338.717 291.711 339.944 291.388C341.751 290.937 342.784 291.84 342.784 293.906C342.784 294.745 342.268 295.004 340.525 295.004C338.524 295.004 338.265 294.81 338.265 293.39Z" fill="white"/>
<path d="M314.767 293.39C314.574 292.873 314.703 292.421 315.026 292.421C315.413 292.421 315.671 292.873 315.671 293.39C315.671 293.906 315.542 294.358 315.413 294.358C315.284 294.358 315.026 293.906 314.767 293.39Z" fill="white"/>
<path d="M321.287 293.906C320.384 293.067 320.9 291.259 322.062 290.937C322.772 290.743 323.482 290.807 323.676 291.001C324.451 291.711 323.999 293.583 323.03 293.971C321.804 294.423 321.804 294.423 321.287 293.906Z" fill="white"/>
<path d="M344.334 293.454C343.623 291.582 344.398 290.162 346.206 289.968C347.561 289.775 347.949 290.033 347.949 291.066C347.949 293.196 347.239 294.358 345.947 294.358C345.237 294.358 344.527 293.971 344.334 293.454Z" fill="white"/>
<path d="M325.806 292.615C325.032 291.905 325.29 290.614 326.387 290.226C327.614 289.775 330.196 291.066 329.486 291.776C328.582 292.55 326.258 293.131 325.806 292.615Z" fill="white"/>
<path d="M331.423 291.001C330.842 290.097 332.907 288.548 334.586 288.548C335.36 288.548 335.683 288.935 335.554 289.646C335.296 290.937 332.004 291.969 331.423 291.001Z" fill="white"/>
<path d="M313.734 290.549C313.734 290.227 313.541 289.516 313.347 288.935C313.153 288.354 313.218 287.903 313.605 287.903C314.445 287.903 315.09 290.356 314.315 290.872C313.993 291.066 313.734 290.937 313.734 290.549Z" fill="white"/>
<path d="M315.477 289.064C315.09 287.644 315.865 286.611 317.349 286.611C318.189 286.611 319.028 289.129 318.511 289.968C317.801 291.066 315.8 290.42 315.477 289.064Z" fill="white"/>
<path d="M319.996 289.387C319.028 288.419 319.609 286.095 320.9 285.772C321.868 285.514 322.385 285.837 322.901 286.999C323.289 287.838 323.482 288.677 323.353 288.806C322.708 289.387 320.384 289.839 319.996 289.387Z" fill="white"/>
<path d="M337.426 289.387C336.587 288.548 336.974 288.032 338.911 287.322C340.525 286.805 340.977 286.87 341.299 287.644C341.88 289.194 338.653 290.678 337.426 289.387Z" fill="white"/>
<path d="M343.107 287.903C342.461 286.87 343.365 285.966 345.044 285.966C347.045 285.966 347.626 287.644 345.818 288.161C343.882 288.677 343.559 288.613 343.107 287.903Z" fill="white"/>
<path d="M348.594 286.353C348.594 285.385 349.756 284.352 350.273 284.868C350.724 285.32 349.821 287.257 349.175 287.257C348.852 287.257 348.594 286.87 348.594 286.353Z" fill="white"/>
<path d="M312.895 285.514C312.637 285.32 312.443 284.481 312.508 283.771C312.508 282.544 312.572 282.544 313.153 283.965C313.799 285.514 313.67 286.289 312.895 285.514Z" fill="white"/>
<path d="M314.122 284.546C313.541 282.286 313.605 282.093 315.284 282.093C317.156 282.093 318.318 284.481 316.898 285.385C315.413 286.289 314.574 286.03 314.122 284.546Z" fill="white"/>
<path d="M336.329 285.837C336.329 285.643 336.651 284.61 337.039 283.448C337.943 280.866 339.944 280.737 340.396 283.255C340.589 284.223 340.654 285.062 340.589 285.127C340.267 285.514 336.329 286.095 336.329 285.837Z" fill="white"/>
<path d="M318.705 284.223C318.447 284.029 318.253 283.255 318.253 282.544C318.253 281.512 318.447 281.447 319.222 282.093C319.738 282.544 320.19 283.319 320.19 283.771C320.19 284.739 319.415 284.998 318.705 284.223Z" fill="white"/>
<path d="M341.945 282.932C341.558 280.931 342.397 280.027 344.398 280.285C345.366 280.414 345.689 280.995 345.689 282.415C345.689 284.029 345.431 284.417 344.011 284.546C342.591 284.739 342.268 284.417 341.945 282.932Z" fill="white"/>
<path d="M348.271 283.19C347.432 280.608 347.69 279.833 349.433 279.639C350.983 279.446 351.176 279.639 351.176 281.318C351.176 282.738 350.789 283.319 349.821 283.577C349.111 283.771 348.401 283.577 348.271 283.19Z" fill="white"/>
<path d="M311.927 279.51C311.927 278.284 312.056 277.767 312.25 278.413C312.379 278.994 312.379 280.027 312.25 280.672C312.056 281.253 311.927 280.737 311.927 279.51Z" fill="white"/>
<path d="M313.541 280.35C312.702 279.575 313.089 277.057 314.122 276.67C315.607 276.089 316.317 276.799 316.317 278.929C316.317 280.285 315.994 280.801 315.155 280.801C314.509 280.801 313.734 280.608 313.541 280.35Z" fill="white"/>
<path d="M317.414 278.607C317.156 277.638 317.027 276.605 317.285 276.412C317.93 275.766 318.318 276.799 318.124 278.671L317.93 280.479L317.414 278.607Z" fill="white"/>
<path d="M338.265 278.155C338.265 277.445 338.588 277.057 338.911 277.251C339.298 277.445 339.556 278.09 339.556 278.607C339.556 279.123 339.298 279.51 338.911 279.51C338.588 279.51 338.265 278.929 338.265 278.155Z" fill="white"/>
<path d="M341.17 278.994C340.267 278.026 340.977 276.283 342.461 275.895C344.334 275.443 344.398 275.443 344.979 277.315C345.366 278.477 345.108 278.736 343.43 278.994C342.397 279.188 341.364 279.123 341.17 278.994Z" fill="white"/>
<path d="M347.109 277.767C346.399 277.122 346.593 274.991 347.303 274.991C347.69 274.991 347.949 274.733 347.949 274.346C347.949 274.023 347.561 273.7 347.045 273.7C345.947 273.7 345.044 270.537 345.947 269.633C347.109 268.471 348.401 269.698 349.175 272.861C349.627 274.54 350.079 276.476 350.273 277.122C350.531 277.961 350.273 278.219 349.046 278.219C348.207 278.219 347.303 278.026 347.109 277.767Z" fill="white"/>
<path d="M350.595 274.346C350.143 272.409 348.982 268.536 348.142 265.696C346.851 261.564 346.722 260.531 347.432 260.079C347.884 259.756 348.465 259.498 348.659 259.498C349.369 259.498 351.951 272.732 351.693 275.314L351.499 277.896L350.595 274.346Z" fill="white"/>
<path d="M311.281 274.023C311.281 272.99 311.41 272.603 311.604 273.248C311.733 273.829 311.733 274.733 311.604 275.185C311.41 275.572 311.281 275.121 311.281 274.023Z" fill="white"/>
<path d="M312.572 273.894C312.831 271.635 314.703 271.118 315.219 273.184C315.671 274.862 315.8 274.669 313.864 275.314C312.508 275.702 312.379 275.572 312.572 273.894Z" fill="white"/>
<path d="M339.815 273.313C339.298 271.441 340.396 270.344 342.461 270.602C344.011 270.795 344.592 273.571 343.301 274.41C341.687 275.443 340.202 274.991 339.815 273.313Z" fill="white"/>
<path d="M316.317 272.797C316.317 271.699 316.639 271.118 317.349 271.118C317.995 271.118 318.253 271.57 318.124 272.538C317.801 274.604 316.317 274.798 316.317 272.797Z" fill="white"/>
<path d="M310.571 270.085C310.571 269.375 310.765 269.182 310.959 269.698C311.152 270.15 311.088 270.731 310.894 270.925C310.7 271.183 310.507 270.795 310.571 270.085Z" fill="white"/>
<path d="M311.798 269.892C311.798 268.923 312.185 268.536 313.153 268.536C314.057 268.536 314.38 268.859 314.251 269.633C313.928 271.312 311.798 271.506 311.798 269.892Z" fill="white"/>
<path d="M315.348 269.311C314.896 268.149 314.896 268.149 316.833 267.632C317.995 267.245 318.253 267.439 318.253 268.407C318.253 269.956 315.929 270.731 315.348 269.311Z" fill="white"/>
<path d="M338.717 268.407C338.265 266.793 339.105 265.954 341.364 265.954C342.461 265.954 342.784 266.341 342.784 267.568C342.784 268.536 342.397 269.182 341.88 269.182C341.364 269.182 340.525 269.375 340.008 269.569C339.427 269.763 338.975 269.375 338.717 268.407Z" fill="white"/>
<path d="M344.334 266.922C343.817 265.631 344.592 264.663 346.077 264.663C346.98 264.663 347.303 265.115 347.303 266.277C347.303 267.439 346.98 267.89 346.012 267.89C345.302 267.89 344.527 267.439 344.334 266.922Z" fill="white"/>
<path d="M311.152 266.018C311.152 264.663 312.637 263.113 313.283 263.823C313.541 264.017 313.734 264.921 313.734 265.76C313.734 266.793 313.347 267.245 312.443 267.245C311.604 267.245 311.152 266.793 311.152 266.018Z" fill="white"/>
<path d="M314.703 265.244C314.186 263.63 314.767 262.92 316.962 262.597C318.963 262.339 319.609 264.469 317.866 265.76C316.188 266.987 315.155 266.793 314.703 265.244Z" fill="white"/>
<path d="M338.072 264.856C337.62 264.469 337.426 262.08 337.813 262.08C337.878 262.08 338.846 261.822 340.008 261.499C341.945 260.918 342.074 260.983 342.01 262.726C341.945 264.017 341.558 264.663 340.589 264.921C338.846 265.373 338.588 265.373 338.072 264.856Z" fill="white"/>
<path d="M335.683 263.372C335.683 262.92 335.877 262.726 336.135 262.92C336.329 263.178 336.329 263.565 336.135 263.823C335.877 264.017 335.683 263.823 335.683 263.372Z" fill="white"/>
<path d="M342.913 262.339C343.107 261.241 345.108 259.627 345.56 260.144C345.754 260.337 346.077 261.112 346.27 261.951C346.722 263.242 346.528 263.372 344.721 263.372C343.172 263.372 342.72 263.113 342.913 262.339Z" fill="white"/>
<path d="M311.798 262.274C311.798 261.951 312.121 261.306 312.443 260.789C312.96 260.015 313.089 260.079 313.089 261.306C313.089 262.08 312.831 262.726 312.443 262.726C312.121 262.726 311.798 262.532 311.798 262.274Z" fill="white"/>
<path d="M313.734 260.854C313.734 259.046 315.09 258.465 316.123 259.821C316.768 260.789 316.768 261.112 316.123 261.564C314.767 262.403 313.734 262.145 313.734 260.854Z" fill="white"/>
<path d="M333.359 260.015C332.197 258.724 332.197 258.659 333.295 259.046C333.94 259.305 334.779 259.498 335.102 259.498C335.425 259.498 335.683 259.95 335.683 260.467C335.683 261.822 334.779 261.693 333.359 260.015Z" fill="white"/>
<path d="M319.48 259.95C316.704 257.82 316.317 253.043 318.899 253.043C320.642 253.043 322.256 255.754 321.997 258.272C321.804 260.596 321.029 261.112 319.48 259.95Z" fill="white"/>
<path d="M337.168 260.337C337.426 260.144 337.813 260.144 338.072 260.337C338.265 260.596 338.072 260.789 337.62 260.789C337.168 260.789 336.974 260.596 337.168 260.337Z" fill="white"/>
<path d="M346.916 257.82C347.109 257.239 347.303 256.658 347.303 256.529C347.303 256.4 347.626 256.271 347.949 256.271C348.336 256.271 348.594 256.852 348.594 257.562C348.594 258.336 348.142 258.853 347.561 258.853C346.851 258.853 346.658 258.53 346.916 257.82Z" fill="white"/>
<path d="M313.089 257.626C313.089 256.141 314.445 253.688 315.219 253.688C316.575 253.688 315.607 257.82 314.186 258.078C313.605 258.207 313.089 258.013 313.089 257.626Z" fill="white"/>
<path d="M327.614 256.916L325.677 256.464L327.42 256.012C329.228 255.496 330.519 255.883 330.519 256.981C330.519 257.626 330.454 257.626 327.614 256.916Z" fill="white"/>
<path d="M325.354 253.817C325.354 251.171 326.839 250.783 328.195 253.107C329.099 254.657 329.163 254.979 328.324 254.979C327.807 254.979 326.968 255.173 326.387 255.367C325.613 255.69 325.354 255.302 325.354 253.817Z" fill="white"/>
<path d="M336.587 254.721C333.682 253.43 331.81 250.009 331.81 245.942C331.81 243.037 332.068 242.327 333.811 240.713C334.908 239.68 336.006 238.841 336.329 238.841C337.749 238.841 342.978 243.811 344.721 246.91L346.722 250.461L344.592 252.72C342.139 255.302 339.427 256.012 336.587 254.721Z" fill="white"/>
<path d="M323.095 253.043C322.901 252.72 323.03 252.397 323.353 252.397C323.74 252.397 324.063 252.72 324.063 253.043C324.063 253.43 323.934 253.688 323.805 253.688C323.611 253.688 323.289 253.43 323.095 253.043Z" fill="white"/>
<path d="M314.638 252.01C314.832 251.429 315.026 250.848 315.026 250.719C315.026 250.59 315.607 250.461 316.317 250.461C317.93 250.461 317.995 251.493 316.381 252.397C314.638 253.301 314.186 253.236 314.638 252.01Z" fill="white"/>
<path d="M319.738 251.235C318.253 251.042 317.801 250.202 318.77 249.621C319.028 249.428 320.19 249.105 321.352 248.847C323.095 248.459 323.418 248.588 323.418 249.686C323.418 251.042 322.062 251.623 319.738 251.235Z" fill="white"/>
<path d="M324.709 249.04C324.709 248.266 324.773 247.814 324.902 247.943C324.967 248.072 325.483 248.718 325.935 249.363C326.71 250.267 326.645 250.461 325.742 250.461C325.096 250.461 324.709 249.944 324.709 249.04Z" fill="white"/>
<path d="M315.671 248.588C315.671 248.201 315.994 247.749 316.317 247.556C316.704 247.362 316.962 247.62 316.962 248.137C316.962 248.718 316.704 249.169 316.317 249.169C315.994 249.169 315.671 248.911 315.671 248.588Z" fill="white"/>
<path d="M318.06 247.62C317.543 246.329 322.127 244.909 322.901 246.135C323.482 247.168 322.901 247.62 320.448 248.137C318.963 248.459 318.318 248.33 318.06 247.62Z" fill="white"/>
<path d="M324.128 245.554C324.128 244.844 324.321 244.651 324.515 245.167C324.709 245.619 324.644 246.2 324.451 246.394C324.257 246.652 324.063 246.264 324.128 245.554Z" fill="white"/>
<path d="M318.641 244.521C319.415 243.101 321.675 240.777 322.256 240.777C322.901 240.777 322.966 243.811 322.32 244.199C321.997 244.328 320.965 244.651 319.996 244.909C318.576 245.232 318.253 245.167 318.641 244.521Z" fill="white"/>
<path d="M323.805 243.037C323.095 241.1 323.418 240.261 324.967 240.003C326.581 239.68 326.581 239.68 325.548 241.681C324.257 244.263 324.321 244.263 323.805 243.037Z" fill="white"/>
<path d="M323.418 239.163C323.418 239.034 324.709 238.13 326.323 237.227C328.259 236.065 329.615 235.677 330.583 235.936C331.745 236.323 331.423 236.581 328.582 237.937C325.419 239.357 323.418 239.873 323.418 239.163Z" fill="white"/>
<path d="M359.246 181.968C357.503 179.45 353.823 175.383 351.176 172.93C348.53 170.477 346.787 168.476 347.303 168.476C348.723 168.476 359.569 171.445 362.28 172.607C364.539 173.575 364.604 173.704 364.023 175.706C363.7 176.868 363.442 179.773 363.442 182.161C363.442 184.614 363.248 186.551 362.99 186.551C362.667 186.551 361.053 184.485 359.246 181.968Z" fill="white"/>
<path d="M227.876 377.505C225.229 376.149 224.648 375.375 221.291 368.726C216.45 359.3 216.321 357.106 220.904 362.464C222.712 364.594 226.908 368.984 230.2 372.212C235.816 377.634 236.075 378.021 234.202 377.763C232.847 377.57 232.33 377.699 232.653 378.215C233.428 379.377 230.975 379.054 227.876 377.505Z" fill="white"/>
<path fill-rule="evenodd" clip-rule="evenodd" d="M336.063 495.119C335.527 493.846 336.125 492.38 337.397 491.845L338.788 491.255C352.31 485.469 360.072 481.993 365.346 476.474C370.62 470.955 371.251 462.849 372.242 457.916C372.513 456.563 375.579 458.94 376.932 459.212C378.286 459.484 379.163 460.802 378.891 462.155C377.7 468.086 374.492 473.74 369.327 479.107C364.18 484.456 354.214 490.19 339.337 496.453C338.065 496.989 336.599 496.391 336.063 495.119Z" fill="#00160A"/>
<path fill-rule="evenodd" clip-rule="evenodd" d="M397.213 237.544C398.4 236.838 399.934 237.227 400.64 238.413C407.712 250.292 411.5 263.872 411.5 278C411.5 320.802 376.802 355.5 334 355.5C322.627 355.5 311.595 353.047 301.494 348.373C300.241 347.793 295.507 343.177 300.274 345.055C305.042 346.932 323.488 351.146 334.133 351.146C374.173 351.146 402.5 318.041 402.5 278C402.5 264.778 397.213 253.043 396.344 240.971C396.243 239.571 396.027 238.25 397.213 237.544Z" fill="#00160A"/>
<path fill-rule="evenodd" clip-rule="evenodd" d="M149.619 426.756C150.503 425.695 152.079 423.551 153.14 424.435C157.492 428.06 162.136 432.26 167.104 433.07C172.274 433.914 178.407 433.914 185.495 433.056C186.866 432.89 188.111 433.867 188.277 435.237C188.443 436.608 187.467 437.854 186.096 438.02C178.569 438.931 171.972 438.931 166.299 438.005C160.424 437.046 154.96 434.458 149.94 430.276C148.879 429.393 148.735 427.816 149.619 426.756Z" fill="#00160A"/>
<path d="M202.7 339.288C199.472 336.706 192.564 329.089 187.335 322.375C184.624 318.824 181.59 311.594 179.783 304.3C178.943 301.007 178.104 298.038 177.91 297.65C177.652 297.328 176.619 292.744 175.586 287.451C174.037 279.962 174.365 277.55 173.004 268.593C172.428 264.8 171.907 261.782 171.907 261.782L173.585 259.627C174.554 258.336 175.778 256.2 176.232 254.979C178.298 249.421 193.468 231.998 193.92 232.45C194.049 232.579 193.533 235.613 192.629 239.163C191.79 242.714 190.757 248.072 190.305 251.106C189.659 256.141 189.401 256.722 187.4 258.401C184.882 260.531 180.105 267.374 180.105 268.794C180.105 270.731 183.01 269.44 186.044 266.277L189.143 263.049V266.599C189.143 268.923 188.691 271.054 187.852 272.732C186.238 275.895 186.238 279.252 187.787 281.834C188.562 283.125 189.272 286.224 189.724 289.904C191.725 306.559 195.986 321.019 203.281 335.544C205.088 339.159 206.508 342.129 206.444 342.129C206.315 342.129 204.636 340.838 202.7 339.288Z" fill="white"/>
<path fill-rule="evenodd" clip-rule="evenodd" d="M471.313 379.119L475.961 381.185C476.925 381.63 487.558 386.738 500.329 392.875C520.92 402.769 547.071 415.334 547.23 415.334C547.489 415.334 548.7 412.533 548.973 409.266C549.619 402.23 552.007 392.675 554.783 386.026C556.074 383.057 557.107 379.345 557.107 379.023C557.107 378.875 556.058 378.452 554.34 377.759C552.294 376.934 549.302 375.727 546.004 374.148C529.736 366.337 497.91 350.392 493.972 348.003C490.099 345.744 489.324 345.55 489.324 347.035C489.324 348.972 485.386 357.945 482.352 362.786C480.739 365.433 477.575 370.21 475.316 373.374L471.313 379.119ZM546.133 403.714C547.984 404.787 544.777 406.361 544.003 406.619C539.441 407.007 534.071 406.149 529.671 403.585C527.371 401.954 509.256 391.89 497.24 385.215C491.747 382.163 487.528 379.819 486.678 379.313C483.966 377.699 481.384 375.956 480.932 375.439C479.577 373.696 480.868 372.922 484.676 373.244C486.966 373.438 542.134 401.397 546.133 403.714Z" fill="white"/>
<path d="M424.963 384.929C423.284 384.348 421.477 383.057 420.315 381.572L418.378 379.183L425.221 372.405C435.744 362.076 443.49 350.788 450.462 338.2C452.786 334.004 459.694 317.081 460.533 315.209C461.824 312.498 462.792 311.465 465.568 309.916C468.86 307.979 472.605 307.334 474.218 308.431C477.317 310.497 477.317 317.017 474.218 328.249C470.797 340.579 466.214 349.424 456.724 362.141C455.239 364.078 452.463 367.886 450.462 370.533C445.104 377.634 441.618 381.056 436.906 383.702C432.258 386.285 429.546 386.607 424.963 384.929Z" fill="white"/>
<path d="M449.3 383.444L447.945 382.088C447.945 382.088 470.445 353.501 474.477 342.968C477.553 334.93 479.364 332.65 481.807 332.65C483.174 332.65 484.289 332.962 484.805 333.737C485.709 335.092 486.58 336.771 485.418 342.516C483.482 351.812 480.512 357.945 471.603 371.179C469.538 374.213 466.891 377.57 465.729 378.732C463.018 381.249 456.918 383.831 453.367 384.412C451.108 384.735 450.462 384.606 449.3 383.444Z" fill="white"/>
<path fill-rule="evenodd" clip-rule="evenodd" d="M487.095 353.551C488.397 350.573 489.324 347.975 489.324 347.035C489.324 345.55 490.099 345.744 493.972 348.003C497.91 350.392 529.736 366.337 546.004 374.148C552.072 377.053 557.107 378.7 557.107 379.023C557.107 379.345 485.714 356.709 487.095 353.551Z" fill="#E7EAEE"/>
<path fill-rule="evenodd" clip-rule="evenodd" d="M266.222 357.235C258.023 351.877 245.629 339.288 239.625 330.315C231.039 317.404 225.358 303.589 222.583 288.742C220.581 277.961 220.646 261.37 222.647 251.752C224.713 241.939 227.36 234.451 232.072 224.961C237.559 213.987 243.369 205.918 252.084 197.203C260.63 188.656 222.647 223.998 232.072 287.233C239.625 340.223 272.085 361.098 266.222 357.235Z" fill="#E7EAEE"/>
</svg>
